<?xml version="1.0" encoding="utf-8"?>
<!-- Generator: Adobe Illustrator 25.0.1, SVG Export Plug-In . SVG Version: 6.00 Build 0)  -->
<svg version="1.1" id="Layer_1" xmlns="http://www.w3.org/2000/svg" xmlns:xlink="http://www.w3.org/1999/xlink" x="0px" y="0px"
	 viewBox="0 0 420.5 795" style="enable-background:new 0 0 420.5 795;" xml:space="preserve">
<g>
	<path d="M203,424.1c-0.3-0.7-0.5-1.5-0.8-2.1c-1.5-2.8-4.1-3.6-6.6-1.7c-1.1,0.8-2.4,1.2-3.2,2.4c-0.7,1.1-2,1.8-3,2.6
		c-1.4-2.4-2,0-2.9,0.5c-3.1,1.9-6,4-8.2,7c-1.1,1.5-2.8,2.2-4.5,2.6c-8.5,1.6-16.8,3.9-25.2,6c-2.8,0.7-5.4,1.7-8,3
		c-4.1,1.9-8.7,2.9-13.2,4.1c-7.8,2.1-15.5,4.5-22.4,9.1c-3.5,2.3-7.5,4-10.9,6.5l-0.2-0.2c2-4.3,4.1-8.6,5.4-13.3
		c1.4-5,5.1-9.1,8.1-13.3c0.5-0.6,1.3-1.1,1.5-1.8c2.3-7.9,8-13.6,12.3-20.3c1.3-2,2.2-4.1,3.4-6.1c1.3-2.4,2.4-5,4.1-7
		c2.6-2.8,4.1-6.1,5.7-9.4c2.4-4.9,6.1-9,8.7-13.7c4.3-7.6,9.6-14.5,14.3-21.8c0.6-0.9,1.7-2.2,1.1-3.2c-1.8-3,0.5-4.4,1.9-6.4
		c7.2-10.3,15.2-20,21.9-30.7c1-1.6,2.5-3,4-4.3c4.3-3.7,8.1-8,11.1-12.7c2.4-3.7,5-7.1,7.8-10.6c0.3,0.4,0.7,0.9,1.1,0.5
		c0.4-0.4-0.1-0.8-0.5-1.1c0.6-1,1.2-1.9,1.7-2.9c0.6,0.9,1.2,0.9,1.8,0c0.4-0.3,0.9-0.7,0.5-1.1c-0.4-0.4-0.8,0-1.1,0.4l-0.5,0
		c1.3-3.9,4.3-6.7,6.5-10.1c4.1-6.3,8.8-12.2,13.3-18.2c2.9-3.9,4.7-8.4,7.1-12.5c0.8-1.3,1.3-2.9,2.4-3.9c5-4.7,7.9-11,12-16.3
		c5.4-6.8,9.8-14.4,15.6-20.9c1.8-2,3.2-4.4,4.4-6.8c2.6-5.3,6.4-9.7,10-14.2c2.6-3.3,4.2-7,6.3-10.4c3.6-5.9,7.7-11.6,10.5-18.1
		c1.6-3.7,4.4-6.8,5.5-10.8c0.2-0.7,0.6-1.4,1.1-2c4.7-5.9,9.5-11.7,12.7-18.6c0.5-1.1,1.7-1.7,2.2-2.5c1.7-3.1,6.7-4,5.8-8.7
		c1.6-1.2,1.7-3.8,4.6-3.9c2.1-0.1,2.7-1.6,1.4-3.1c-1-1.1-1.4-1.5-0.1-2.5c0.5-0.3,0.9-0.8,1.4-1c2.9-1.7,2.9-1.7,1.2-4.4
		c-0.6-1-0.3-1.4,0.6-1.6c1-0.2,1.9-0.1,2.9-0.1c0.6,0,1.2,0,1.7-0.2c1.9-0.7,0.4-3.4,1.7-3.8c1-0.3,2.5,1.1,3.7-0.2
		c0.6-0.6,0.7-1.8,0.2-2.1c-1.8-1.2-1.5-1.9-0.1-3.4c2-2.1,3.2-4.9,5.7-6.5c0.4,1.6,1,2.9,2.8,3.3c1,0.2,2,0,2.3-1.1
		c0.3-1,0.2-2-0.9-2.4c-1.1-0.3-2.3-0.3-3.4-0.5c1.5-3.4,3.6-6.2,6.2-8.8c0.6-0.6,1.1-0.8,2-0.4c1.3,0.7,2.2-0.2,2.9-1.2
		c0.6-1,0.2-1.8-0.9-2.3c-0.5-0.2-0.6-0.5-0.3-0.8c0.2-0.3,0.5-0.6,0.8-0.9c2.2-2.1,3.7-4.8,6.6-6.1c-0.4-3.8,3.1-5.6,4.6-8.4
		c1.5-2.7,3.4-5.2,4.9-7.8c4.1-6.9,9.4-12.7,16.3-16.9l0.2,0.2c-0.2,0.5-0.1,0.9,0.4,0.9c0.5,0,0.6-0.4,0.4-0.9l0.3-0.3
		c0.8,0.2,1-0.1,0.9-0.9l0.2-0.2c4-2.4,7.1-5.7,9.7-9.6c0.5-0.8,1.3-1.4,1.9-2.1c0,0,0.2,0.2,0.2,0.2c-0.2,0.5-0.1,0.9,0.4,0.9
		c0.5,0,0.6-0.4,0.4-0.9l0.3-0.3c0.8,0.2,1-0.1,0.9-0.9l0.2-0.2c3.9-2.3,6.9-5.5,9.4-9.3c0.7,0.5,2.5-1.1,2.3,1.2
		c-3,3.3-4.9,7.2-7.3,10.9c-2.9,4.4-5.6,8.8-8.3,13.3c-0.8,1.3-1.4,2.7-2.1,4.1c-0.2,0.3,0,0.8-0.2,1.1c-4.4,7.7-8.9,15.4-13.4,23.1
		c-0.1-0.6-0.2-1.1-0.3-1.7c-0.2-0.7-0.4-1.6-1.4-1.4c-1.3,0.2-1.2,1.2-1.1,2.2c0.1,1.2,1.2,1.3,2.1,1.6
		c-2.8,7.9-6.8,15.3-10.9,22.5c-6.7,11.8-13.6,23.5-19.5,35.7c-0.2,0.5-0.6,1-0.9,1.5l-0.3-0.3c0.3-0.7,0.4-1.8-0.4-1.8
		c-0.8,0-0.7,1.1-0.4,1.8l-0.3,0.3c-1.4,0.8-1.4,1.1,0,1.9l0.2,0.2c-0.4,0.6,0,1.6-1,2c-0.3-0.4-0.7-0.9-1.1-0.5
		c-0.4,0.4,0.1,0.8,0.5,1.1c0.1,0.6,0,1.2,0.2,1.7c1.4,5.2,1.4,5.3-2.8,8.5c-1,0.7-1.6,1.6-2,2.7c-1.4,4-3,7.9-4,12.1
		c-1.1,4.5-3,8.8-4.7,13.1c-1.9,4.7-2.2,9.9-4.7,14.3c-0.5,0.9,0.1,1.5,0.4,2.1c0.2,0.3,0.3,0.8,0.6,0.9c0.7,0.3,0.9-0.3,1.1-0.8
		c0.3-0.5,0.5-1.1,0.9-1.5c0.2-0.3,0-1.2,0.8-0.8c0.2,0.1,0.2,0.8,0.1,1.1c-1.2,3.7-2.4,7.3-4.9,10.5c-3.6,4.7-5.5,10-6.9,15.8
		c-1.6,6.3-3.9,12.6-6.5,18.6c-4.4,10.3-7.9,21-12.2,31.4c-0.9,2.3-2.7,4.4-2.5,7.1c-0.9,0.5-1,1.4-1.2,2.3
		c-0.7,0.7-1.4,1.6-0.3,2.2c0.7,0.3,0.8-0.9,1-1.6c0.9-0.5,1-1.4,1.2-2.3c0.6-0.6,1.2-1.1,1.8-1.7l0.3,0.2c0.1,2-1.6,3.6-1.1,5.7
		l-0.2,0.2c-0.7,0-1.3,0.5-1.1,1c1.4,2.6,0,4.9-0.9,7.1c-4.9,12-10.1,23.8-14.8,35.9c-1.3,3.2-2.6,6.3-4.2,9.4
		c-0.2,0.5-0.1,1.2,0.5,1.5c0.5,0.2,1.2,0.3,1.6-0.3c0.3-0.5,0.5-1,0.9-1.5c0.2-0.3,0.6-0.5,0.9-0.7c0.2,0.3,0.5,0.5,0.5,0.8
		c-0.1,2.2,1,4.7-2,6c-1.4,0.6-1.1,2.4-1.7,3.5c-0.8,1.6-2,2.2-3.8,1.1c-1.3-0.8-1.4-0.7-1.9,1.6c-2.2,0.6-4.4,1.1-6.7,1.7l-0.2-0.3
		c1.2-4,0.3-9.1,5.3-11.4c0.5-0.2,0.8-1.3,0.9-2c0.9-6,3.9-11.2,6.4-16.6c2.6-5.7,5.6-11.3,8.5-16.9c0.9-1.7,1.9-3.4,1.8-5.5
		c0.4-0.3,0.9-0.7,0.5-1.1c-0.4-0.4-0.8,0.1-1.1,0.5c-0.7-0.3-0.6-0.9-0.4-1.5c0.9-2.5,1.8-5.1,2.7-7.6c0.3-0.8,0.6-1.5-0.2-2
		c-0.2-0.1-1.1,0.4-1.4,0.8c-3.3,3.8-6.7,7.5-9.8,11.4c-1.3,1.7-2.1,0.1-2.7-0.2c-0.9-0.6-0.8-2.2,0.1-2.4c2.8-0.4,2.2-1.8,1.7-3.6
		c-0.2-0.9-0.3-2,0.9-2.5c0.8-0.3,1.6-0.1,2,0.6c0.6,1.2,1.2,1.1,2.2,0.4c1.3-1,1.6-2.7,2.7-3.8c1.3-1.3,1-1.9-0.3-3.1
		c-1.2-1.2-0.3-2.8,1.5-2.4c2,0.5,2.9,0.4,2.7-1.9c-0.1-1.1,0.7-1.6,1.6-2.1c1.1-0.6,1.8-1.3,1.1-2.8c-0.7-1.4,0.8-2.5,1.2-3.7
		c0.4-1.3,1.8-2.6,1.6-3.6c-0.7-3.5,1.4-5.8,3-8.2c0.7-1.1,1.2-2.3,0.7-3.3c-0.9-2.2,0.3-4.1,0.2-6.1c0.7-0.7,1.5-1.6,0.4-2.2
		c-0.6-0.3-0.8,0.9-1,1.6c-0.4,0.6-0.7,1.4-1.3,1.9c-0.4,0.3-1,0.5-1.6,0.5c-1,0-1.2-0.9-1.2-1.6c0-0.9-0.2-2.1,1-2.4
		c3.6-0.8,3.2-3,2.5-5.7c-0.6-2.5-0.6-2.7-3.1-1.9c-0.9,0.3-1.9,0.3-2.9,0.4l-0.3-0.3c0.1-1.1,0.2-2.2,0.3-3.3c0.3-2.4,0.3-2.4,3-1
		c0.3,0.4,0.7,0.9,1.1,0.5c0.4-0.4-0.1-0.8-0.5-1.1c-0.2-0.7-0.3-1.9-1-1.9c-3.4,0.1-3.9-2.1-4.1-4.7l0.3-0.3
		c3.3,0.1,3.3,0.1,2.4-2.1c-0.6-1.4-1.5-2.7-1.1-4.4c0.1-0.6,0.4-1.1,1-1.2c0.5-0.1,1.3,0,1.6,0.3c0.8,1.1,1.2,2.4,2,3.5
		c0.5,0.7,1,1.9,2.2,1.2c0.9-0.5,1.6-1.4,1.1-2.4c-2.7-5.2-1.9-11.7-6.1-16.4c-0.3-0.4-0.7-1.2-0.5-1.5c1.2-2.2,0.6-3.9-0.9-5.7
		c-0.8-0.9-1.1-2.9,0.5-3.4c1.1-0.4,2.6,0.5,3.3,1.8c0.4,0.8,0.8,1.8,0.9,2.7c0.3,3.2,1.9,5.7,3.9,8.1c0.3,0.4,0.7,0.9,1.1,0.5
		c0.4-0.4-0.1-0.8-0.5-1.1c0-0.6,0-1.2-0.1-1.7c-1-4.5-3.2-8.6-3.7-13.3c0-0.4-0.7-1.1-1.1-1.1c-2.6-0.4-2.6-2.2-1.9-3.9
		c0.5-1.3,0.2-2.2-0.3-3.2c-0.5-1-1.3-1.1-1.7-0.3c-1.3,2.9-3.9,4.7-5.8,7.2c-4.3,5.9-8.6,11.9-13.4,17.4c-2.3,2.6-3.3,5.1-3.2,8.3
		c-0.4,0.4-0.8,0.8-1.2,1.2c-0.4,0.3-0.9,0.7-0.5,1.1c0.4,0.4,0.8-0.1,1.1-0.5c0.4-0.4,0.8-0.8,1.2-1.2c1.8-1.7,3.6-3.5,5.4-5.2
		l0.3,0.2c-0.3,1.4-1.1,2.4-2.1,3.4c-4.2,4.3-7.9,9-11.1,14.1c-3.6,5.5-7,11.1-10.7,16.6c-3.2,4.8-6.8,9.4-10.2,14.1
		c0,0-0.2-0.2-0.2-0.2c0.1-1.4,0.3-2.9,0.4-4.3c0.9-0.5,1.1-1.4,1.2-2.3c0.9-0.5,1.1-1.4,1.2-2.3c0.4-0.3,0.9-0.7,0.5-1.1
		c-0.4-0.4-0.8,0.1-1.1,0.5c-0.9,0.5-1,1.4-1.2,2.3c-0.8,0.6-1,1.5-1.2,2.3c-0.8,0.7-1.9,1.2-1.8,2.6l-0.2,0.2
		c-1.9,0.2-2.4,1.5-2.6,3.1c-0.4,0.4-0.8,0.8-1.2,1.2c-0.9,0.5-1,1.4-1.2,2.3c-0.4,0.4-0.8,0.8-1.2,1.2c-0.4,0.4-0.8,0.8-1.2,1.2
		c-0.4,0.4-0.8,0.8-1.2,1.2c-2.5,1.7-4,4.1-4.7,7c-0.6,0.5-1.2,1-1.6,1.5c-0.5,0.6-0.7,1.5,0.1,2c0.3,0.2,1-0.2,1.6-0.4
		c0.3,1.5-0.7,2.7-1.5,3.7c-3.4,4.3-5.5,9.4-8.2,14.1c-3.7,6.6-7.2,13.3-11.9,19.3c-0.4,0.5-0.8,1-1.2,1.5c-0.1-0.8-0.4-1.7-0.1-2.3
		c1.1-2.7,1-5.8,2.6-8.3c0.3-0.4,0.5-1.2-0.2-1.4c-0.4-0.1-1,0.4-1.5,0.6c-0.1,0.1-0.1,0.4-0.3,0.5c-4.4,5.9-8.7,11.8-13,17.8
		c-4.3,6.1-8.2,12.6-12.6,18.7c-1.2,1.7-1.8,3.2-4.1,3.2c-1.4,0-2.2,0.7-1.6,2.3c0.4,0.9,1.1,2.1,0.4,2.7c-0.7,0.6-0.7-1.4-1.9-1.2
		c-0.7,0.1-1,0.5-1.2,1.1c-0.5,1.3,0.4,2.2,0.9,3.3c-0.9,0.5-1,1.4-1.2,2.3c-1.7-1.7-3.2-0.5-4.6,0.3c-0.5,0.3-0.9,0.7-0.7,1.4
		c0.1,0.6,0.6,0.9,1.2,1c2.1,0.4,3.8-0.2,4.9-2.1c0.9-0.5,1-1.4,1.2-2.3c0.2-0.1,0.3-0.2,0.5-0.3c0.9-0.8,1.5-0.6,1,0.5
		c-1.2,2.6-2.4,5.6-4.9,7c-2.2,1.2-6.2,0.6-2.4,4.7c0.2,0.3-0.3,1.5-0.7,2c-3.5,4.6-6.1,9.8-10,14.1c-5.1,5.5-10.1,11-14.5,17.1
		c-2,2.7-5.2,4.7-6,8.3c-0.4,0.4-0.8,0.8-1.2,1.2c-0.4,0.4-0.8,0.8-1.2,1.2c-0.4,0.4-0.8,0.8-1.2,1.2c-0.4,0.4-0.8,0.8-1.2,1.2
		c-0.4,0.3-0.9,0.7-0.5,1.1c0.4,0.4,0.8-0.1,1.1-0.5c0.4-0.4,0.8-0.8,1.2-1.2c0.4-0.4,0.8-0.8,1.2-1.2c0.4-0.4,0.8-0.8,1.2-1.2
		c0.4-0.4,0.8-0.8,1.2-1.2c2.1-1.6,4.2-3.1,6.3-4.7c0.6,1.6-1.3,2.6-1.1,4.1c-0.9,0.5-1.1,1.4-1.2,2.3c-0.4,0.3-0.9,0.7-0.5,1.1
		c0.4,0.4,0.8-0.1,1.1-0.5c0.9-0.5,1-1.4,1.2-2.3c2-1.4,2.8-3.7,3.5-5.9c1.7-0.2,3-1,3.2-2.8c0.3-2.3,2.2-3.5,3.2-5.3
		c0.1-0.3,1.1-0.2,1.6-0.1c0.6,0.2,0.7,0.9,0.5,1.4c-1.5,3.2-1.6,7.1-4.5,9.7c-1.3,0.8-2.2,1.9-2.4,3.5c-2.3,1.6-2.9,4.6-5.1,6.3
		c-0.2,0.2-0.3,0.7-0.3,1c0,0.3,0.2,0.8,0.5,1c0.3,0.2,1,0.3,1.1,0.1c1.4-2.6,4.8-4.1,4.5-7.8c1.3-0.8,2.2-1.9,2.4-3.5
		c2-0.8,2.9,3.1,5.1,1.2c1.7,1.1,3.6,2.2,4.6,4c0.6,1.2,0.4,2.6-0.4,3.9c-1.2,1.9-1.8,3.7-0.7,5.9c0.6,1.1-0.3,2.3-1.4,2.9
		c-1.4,0.7-1.4,0.8-0.3,2.2c1.8,2.3,0.8,3.7-2.2,3.5c-0.8-0.1-1.4-0.4-1.8,0.6c-0.6,1.2-1.1,2.6-2,3.6c-5.4,5.7-8.3,13-12.2,19.6
		c-0.7,0.7-1.5,1.6-0.4,2.2c0.6,0.3,0.8-0.9,1-1.6c3.2-2.9,5.7-6.4,7.7-10.1c2.1-4,5-7.4,8.4-10.4c0.4-0.3,1.2-0.6,1.5-0.4
		c0.4,0.2,0.5,1,0.6,1.5c0.3,1.5-0.6,2.6-1.5,3.6c-0.6,0.6-0.9,1.4-0.2,2.1c0.9,0.9,1.8,0.3,2.5-0.4c0.7-0.7,1.7-1.4,1.8-2.3
		c0.5-3.3,2.6-5.5,4.6-8c0.3-0.3,0-1.1,0-1.7l0.3-0.3c1.3-3,4.6-5.1,3.7-9c-0.1-0.6,0.5-1.1,1.1-1.1c1.3-0.1,2.7,0,4,0
		c1,0,1.2,0.8,1.3,1.6c0.3,1.7-0.6,3-1.8,4c-2.2,1.9-4,4.1-4.7,7c-0.4,1.5-1.4,2.7-2.6,3.8c-0.9,0.8-1.5,1.8-1.6,3
		c-1.3,0.8-0.9,2.3-1.2,3.5c-0.4,0.4-0.8,0.8-1.2,1.2c-0.4,0.4-0.8,0.8-1.2,1.2c-0.9,0.5-1,1.4-1.2,2.4c-0.4,0.3-0.9,0.7-0.5,1.1
		c0.4,0.4,0.8-0.1,1.1-0.5c0.9-0.5,1.1-1.4,1.2-2.3c0.4-0.4,0.8-0.8,1.2-1.2c0.4-0.4,0.8-0.8,1.2-1.2c1.4-0.8,0.9-2.3,1.2-3.5
		c0.3-0.2,0.6-0.5,0.9-0.7c1.6-1.5,3-3.9,5.8-1.9c3-1.6,7.2-0.1,9.4-3.7c0.3-0.4,1-0.6,1.5-0.7c4.1-0.9,6.5-3.6,8.7-7
		c2.6-4,5.9-7.6,8.9-11.3c0.2-0.2,0.7-0.4,1.1-0.3c0.4,0.1,0.4,0.5,0.1,0.9c-0.5,0.8-1.1,1.6-1.4,2.5c-1.1,2.9-4.4,4.4-5.1,7.6
		c-0.4,0.4-0.8,0.8-1.2,1.2c-0.4,0.3-0.9,0.7-0.5,1.1c0.4,0.4,0.8-0.1,1.1-0.5c0.4-0.4,0.8-0.8,1.2-1.2c1-0.9,2-1.9,3-2.7
		c0.2-0.2,0.6-0.2,0.9-0.3c0,0.4,0.1,0.8-0.1,1.1c-2.1,2.6-4.2,5.1-6.2,7.6c-0.5,0.6-1.4,1.1-0.9,1.9c0.5,0.8,1.4,0.3,2-0.1
		c4.4-3.2,8.7-6.4,13.1-9.5c5.1-3.6,9.5-8.6,16-10.1l0.2,0.2c-0.2,1.9-1.6,3-2.8,4.2c-1,0.9-0.3,1.7,0.1,2.5
		c-0.4,0.4-0.8,0.8-1.2,1.2c-0.4,0.4-0.8,0.8-1.2,1.2c-0.4,0.3-0.9,0.7-0.5,1.1c0.4,0.4,0.8-0.1,1.1-0.5c0.4-0.4,0.8-0.8,1.2-1.2
		c0.4-0.4,0.8-0.8,1.2-1.2c1-0.9,1.9-1.9,3-2.7c0.7-0.5,0.9-1.7,2.1-1.4c-0.3,0.9-0.5,1.8-1,2.6c-0.7,1.1-1.6,2.2-2.4,3.2
		c-0.4,0.3-0.9,0.7-0.5,1.1c0.4,0.4,0.8-0.1,1.1-0.5c4.2-1.7,7.5-5.5,12.5-5.4c0.3,0,0.6-0.5,0.9-0.7c2.9-1.4,4.9-3.8,7.1-5.9
		c1.5-1.5,2.9-3.2,5-3.9c0.5-0.2,1.4-0.5,1.5-0.3c0.4,0.5-0.3,0.9-0.6,1.3c-3.4,3.5-6.9,6.9-10.3,10.4c-0.9,1-2.4,1.8-2.3,3.2
		c0.2,3-2,4.5-3.7,6.3c-1.8,2-3.5,4.1-5.3,6.1c-2.8,3.1-3.9,7.1-7.1,9.9c-7.6,6.5-13.1,14.7-18.3,23.1c-0.9,0.6-0.9,1.2,0,1.8
		c0.3,1.3-0.8,2-1.4,2.9c-1.8,2.8-4.6,4.9-5.7,8.2c-0.4,0.4-0.8,0.8-1.2,1.2c-0.4,0.3-0.9,0.7-0.5,1.1c0.4,0.4,0.8-0.1,1.1-0.5
		c0.4-0.4,0.8-0.8,1.2-1.2c1.7,0,2.7-1.3,3.7-2.3c1.2-1.2,2.3-2.5,4.1-2.8l0.2,0.2c-4.7,4.9-9.1,10-13.1,15.5
		c-2.6,3.6-5.1,7.3-8.2,10.5c-3.2,3.3-5.5,7.1-7.4,11.1c-3,6.3-6.9,12-11.3,17.4c-2.8,3.4-5.9,6.7-7.4,11c-0.4,0.4-0.8,0.8-1.2,1.2
		c-0.4,0.4-0.8,0.8-1.2,1.2c-0.4,0.4-0.8,0.8-1.2,1.2c-0.4,0.3-0.9,0.7-0.5,1.1c0.4,0.4,0.8-0.1,1.1-0.5l0.5,0.1
		c0.2,2.2-1.6,2.9-2.9,4c-0.6-0.9-1.2-0.9-1.8,0c-0.9,0.6-0.9,1.2,0,1.8c0.1,0.8-0.1,1.5-0.7,2.1c-6.1,5.8-9.5,13.4-13.4,20.7
		c-0.4,0.4-0.8,0.8-1.2,1.2c-0.9,0.5-1.1,1.4-1.2,2.4c-0.9,0.6-0.9,1.2,0,1.8c0.2,1.4-0.5,2.3-1.7,2.9c-0.6-0.9-1.2-0.9-1.8,0
		c-0.4,0.3-0.9,0.7-0.5,1.1c0.4,0.4,0.8-0.1,1.1-0.5l0.5,0.1c0.2,1.4-0.6,2.2-1.7,2.8c-0.3-0.4-0.7-0.9-1.1-0.5
		c-0.4,0.4,0.1,0.8,0.5,1.1c-0.8,2.9-3.4,4.6-4.9,7.2c-4.9,8.3-9.7,16.7-15.3,24.5c-4.6,6.4-7.4,13.5-10.4,20.6
		c-0.4,0.3-0.9,0.7-0.5,1.1c0.4,0.4,0.8-0.1,1.1-0.5c1-0.6,1.6-1.6,2.3-2.6c4.5-6.7,9.4-13.1,14.9-19l0.3,0.2c-0.7,2-1.7,3.8-3,5.6
		c-5.8,8-11.2,16.1-16.4,24.5c-1.2,1.9-1.5,3.7-1,5.8l-0.5,0c-0.6-0.9-1.2-0.8-1.8,0.1c-0.4,0.3-0.9,0.7-0.5,1.1
		c0.4,0.4,0.8-0.1,1.1-0.5l0.6,0c0.6,0.9,1.2,0.9,1.8,0c0.6-0.9,1.3-1.9,1.9-2.8c2.7-4.4,6.1-8.3,8.4-13c2.6-5.3,6-10.2,9.1-15.3
		c1.3-2,2.2-1.9,3.7-0.1c0.6,0.8,0.6,1.2,0,1.9c-1.7,2.1-3.7,4.2-0.4,6.7c0.2,0.2,0.1,1.2-0.2,1.6c-0.8,0.9-1.8,0.7-2.5-0.1
		c-0.6-0.8-1-1.8-1.8-0.2c-0.5,1-1.4,1.8-2,2.8c-1.4,2.2-1.2,2.5,1.3,4.5c0.7,0.5,0.9,1.2,0.6,2c-0.3,0.9-1.2,1.1-1.9,0.8
		c-0.9-0.4-1.6-1-2.4-1.6c-0.9-0.6-2.1-0.7-2.6,0.2c-1.8,3.3-5.2,5.6-5.5,9.7l-0.3,0.3c-3.1,2.9-5.1,6.6-7,10.3
		c-0.4,0.7-1.5,1.8-0.2,2.5c1.9,1,1.2,3.1,2.3,4.5c1.2,1.5,1.8,1.9,3.1,0.6c1.8-1.7,3.1-3.9,5.3-5.2l0.2,0.2
		c0.4,2.8-2.5,4.2-2.8,6.7c-0.9,0.5-1.1,1.4-1.2,2.3c-0.4,0.3-0.9,0.7-0.5,1.1c0.4,0.4,0.8-0.1,1.1-0.5c0.9-0.5,1-1.4,1.2-2.3
		c3.1-2.4,5.4-5.3,5.3-9.6l0.3-0.3c1.7-1.5,2.1-3.5,2.1-5.6l0.2-0.2c5.4-6,8.5-13.5,13.5-19.8c0.4-0.5,0.1-1.1-0.1-1.6
		c-0.8-1.9-0.3-3,1.9-3c1.3,0,1.9-0.8,2.7-1.8c2-2.8,4.4-5.3,6.4-8.2c1.2-1.8,2.7-2.6,4.7-2.8c0.5-0.1,1.1,0.2,1.7,0.2
		c-0.1,0.5-0.2,1.1-0.5,1.5c-1.6,2.4-3.3,4.7-4.9,7.1c-0.4,0.4-0.8,0.8-1.2,1.2c-0.4,0.3-0.9,0.7-0.5,1.1c0.4,0.4,0.8-0.1,1.1-0.5
		c0.4-0.4,0.8-0.8,1.2-1.2c5.4-2.8,9.2-6.8,10.1-13.1l0.3-0.3c0.9,0.2,1.4-0.6,1.9-1.1c6.3-5.8,11.3-12.8,16.4-19.6
		c0.6,0.9,1.2,0.9,1.8,0c0.4-0.4,0.8-0.8,1.2-1.2c0.4-0.4,0.8-0.8,1.2-1.2c1.8-1.7,4.2-3,4.7-5.9c0.4-0.4,0.8-0.8,1.2-1.2
		c1.4-1.1,2.7-2.2,3.4-3.8c0.5-1.1,1.2-2,2.5-2.1c2.1-0.2,2.8-1.7,3.7-3.2c3.1-5,7-9.4,11.1-13.6l0.2,0.2c-0.1,2.2,0.9,4.5-0.4,6.7
		c-0.4,0.3-0.9,0.7-0.5,1.1c0.4,0.4,0.8-0.1,1.1-0.5c5.4-3.5,7.2-10,12-14.1c2.9-2.5,5.1-5.8,7.6-8.7l0.2,0.2c0.2,1.5,1,2.9,2.5,1.5
		c2-1.8,4.5-3.3,5.5-6.1l0.3-0.3c3-1.5,5.2-3.8,6.8-6.8l0.3-0.3c2.5-1.2,4.4-3,5.5-5.5l0.3-0.3c1.3-0.2,2.1-0.7,1.8-2.2
		c-0.2-0.9-0.5-1.8-0.5-2.7c0-1.6,1.5-2.5,2.6-1.2c1.3,1.5,2,1.3,3,0.1c0.8-1,2.3-1.5,2.3-3.1l0.3-0.3c2.7-0.9,3.8-3.8,6.1-5
		c4.8-2.5,7.3-7.2,10.7-11c0.7-0.8,0.2-1.2-0.6-1.7c-1.1-0.5-2-1-3,0.2c-1.4,1.5-2.7,3.3-5,3.7l-0.2-0.2c0.9-1.4,3.2-2.1,2.3-4.5
		l0.3-0.3c1,0.4,1.9,0.1,2.6-0.6c1.8-1.7,3.6-2.2,5.4,0c0.7,0.9,1.3,0.2,1.9-0.2c5.2-3.2,8.2-8.7,12.6-12.7c1-0.9,0.2-1.7-0.1-2.6
		c-0.2-0.8-0.2-1.7,0.6-2.1c0.7-0.3,1.6-0.4,2.1,0.4c0.6,0.9,1.1,1.9,2.1,0.7c2.8-3.4,6.7-5.3,9.7-8.4c1.5-1.5,1.7-2.4-0.5-3.3
		c-0.7-0.3-1.3-1-1-1.9c0.4-0.8,1.3-0.5,2.1-0.7c1.3-0.3,2.6,1.7,3.7,0.2c1.8-2.3,4.4-3.6,6.3-5.8c4.1-4.6,7.9-9,8.8-15.3
		c0.2-1.6,1.9-1.9,2.5-0.9c1.5,2.3,2.7,1,3.4-0.3c1.3-2.5,3.2-4.5,5.2-6.2c3.2-2.7,4.3-5.7,2.3-9.6c-0.2-0.3-0.4-0.7-0.4-1.1
		c0-2.1-0.9-4.6,0.5-6.2c0.6-0.7,3.1,0.3,4.8,0.5c0.4,0.1,0.8,0,1.2,0.1c1.7,0.4,1.2,1.7,1.1,2.8c-1.4,0.5-2.5-0.2-3.8-0.5
		c-0.7-0.1-1.5,0.7-1.5,1.5c0.1,1.8,2.7,3,4,1.8c0.7-0.6,1.3-1.4,1.9-2.1c2.8-2.9,4.7-6.7,8.6-8.4c0.5-0.2,0.9-0.8,1.2-1.3
		c3.7-5.8,9.2-9.9,13.7-15c0.9-0.7,2.4-1.5,1.9-2.6c-0.7-1.9,0.1-2.8,1.3-3.9c1.4-1.3,2.8-2.7,4.1-4.1c1.7-1.8,3.5-3.6,5.2-5.5
		c0.2-0.2,0.1-0.7,0-1.1c-0.1-0.5-0.5-0.5-0.9-0.3c-0.7,0.3-1.4,0.6-2.1,0.9c-4.1,2.4-4.1,2.4-7.2-1.3c-0.1-0.1-0.1-0.4-0.3-0.5
		c-1.8-1.4-2.3-0.1-2.6,1.4c-2.8-0.2-2.8-0.2-1.9-1.8c0.2-0.4,1.3-0.8,0.4-1.1c-1.7-0.7-3.6-1.3-5.5-1.3c-1,0-2.7,0.4-3,2.1
		l-0.3,0.3c-1.8,0.3-2.6,1.9-3.7,3.1c-0.4,0.4-0.8,0.8-1.2,1.2c-1.7,1.2-3.5,2.1-5.5,2.8l-0.2-0.3c4-3.4,7.1-7.7,11.5-10.7
		c1.9-1.3,1.5-3.3-0.5-4.7c-0.6-0.4-1.4-0.7-2.1-0.8c-0.4,0-0.9,0.4-1.4,0.7c0.3,0.3,0.5,0.6,0.8,0.8c0.5,0.3,1,0.9,0.6,1.4
		c-0.3,0.4-1.1,0.6-1.5,0.5c-1.6-0.4-3.1-1.4-5-0.6c-1.3,0.6-1.2-1.8-2.5-1.8c0.4-1.3,1.4-0.5,2.1-0.6c1.1-0.2,2.3-0.2,3.4-0.4
		c0.5-0.1,1-0.7,1.2-1.2c0.4-1.3-0.8-1-1.4-1.1c-2.2-0.5-4.5-0.9-6.8-1.5c-0.7-0.2-1.3-0.7-2,0.2c-1.8,2.4-4.3,1-6.5,1.2
		c-1.3,0.1-1.6-1-1.3-2c0.6-2.3,0.6-2.5-1.3-3c-3.7-1.1-7.4-2.1-11.4-1.9c-3.7,0.2-7.4,0-11.1,0c-2.7,0-5.5,0.2-7.2-2.7
		c-0.6-1-1.7-0.8-2.3,0.3c-0.7,1.3-1.7,1.3-3,0.9c-1.2-0.5-2.5-0.9-3.7-1.4c1.3-0.4,3.3,0.1,3.3-2.2c0-1.1-0.7-1.8-1.8-1.8
		c-2.3,0-1.9,1.9-2.2,3.3c-0.8-0.3-2.9,1.3-2-1.5c0.9-2.8-1-3.1-3-3.2c-0.4-1.3,0.1-3.3-2.2-3.3c-1.1,0-1.8,0.7-1.8,1.8
		c0,2.3,1.9,1.9,3.3,2.2c-0.3,3.3-0.4,3.4-2.4,1.8c-1.2-0.9-2-1.9-2.8-3.5c-1-2-4-2.6-6.3-3.5c-0.5-0.2-1-0.3-1.6-0.5
		c0.6-0.1,1.1-0.3,1.7-0.3c1.7-0.1,3.6,0.2,3.9-2.2c6.4-0.6,12.7,0.6,18.9,1.9c2.7,0.6,5.3,0.3,8,0.8c5.1,0.9,10,2.1,14.9,3.8
		l0.2,0.3c0.6,2.1,2.1,1,3.3,0.9l0.2,0.3c1.1,2.3,2.9,0.9,4.5,0.9l0.2,0.3c0.2,1.4,1.4,1.5,2.2,1.1c1.7-0.9,3.2-0.5,4.9,0.1
		c7,2.1,14,4.2,21.1,5.8c3.6,0.8,7,2.2,10.5,3.2c2.6,0.7,5.1,1.5,7.8,1.9c4,0.5,7.8,2,11.2,4.4c3.8,2.7,7.8,4.2,12.5,3.7
		c1.3-0.2,2.7-0.1,4.1,0c1.4,0.1,2.5,0.8,3.5,1.6c-1.1,0.1-2.3,0.2-3.4,0.3c-0.8,0.1-1.6,0.1-2.3,0.3c-0.8,0.2-1.4,0.9-1.4,1.7
		c0,0.2,0.9,0.6,1.4,0.6c3.3,0.1,6.6,0,9.9,0.1c0.6,0,1.1,0.2,1.6,0.4c-0.5,0.2-1.1,0.3-1.6,0.5c-4,1.5-7.9,3.2-11.9,4.5
		c-7.2,2.2-13,6.8-18.7,11.4c-1.6,1.3-3.6,2.2-4.6,4.1l-0.3,0.2c-0.8-0.2-1,0.1-0.9,0.9l-0.3,0.3c-0.5-0.2-0.9-0.1-0.9,0.4
		c0,0.5,0.4,0.6,0.9,0.4l0.2,0.2c-5.2,5.4-10.5,10.7-15.7,16.1c-0.4,0.3-0.9,0.7-0.5,1.1c0.4,0.4,0.8-0.1,1.1-0.5
		c0.6-0.1,1.3-0.3,1.9-0.4l0.2,0.2c-12.4,12.4-24.8,24.9-37.2,37.4c-1.9,2-4.3,3.4-6.4,5c-5,3.6-7.6,9.1-11.5,13.6
		c-4.4,5.1-9.9,8.6-14.6,13.2c-0.7,0.7-1.8,1.1-2.2,1.8c-3.1,5.4-8.6,8.3-12.7,12.7c-3,3.2-5.4,7.1-8.9,10
		c-13.9,11.4-25.6,25.1-38.6,37.4c-3.7,3.5-6.2,7.9-10,11.4c-3,2.8-5.9,5.6-9.5,7.7c-1.5,0.9-3,1.8-3.4,3.7l-0.2,0.2
		c-3.7,0.3-6.1,2.8-8.4,5.3c-1.5,0.3-2.7,1.1-3.5,2.4c-2.3,0.2-3.3,2-4.7,3.4c-2.2,0.4-3.4,2-4.7,3.6c-0.4,0.4-0.8,0.8-1.2,1.2
		c-0.4,0.4-0.8,0.8-1.2,1.2c-0.4,0.3-0.9,0.7-0.5,1.1c0.4,0.4,0.8-0.1,1.1-0.5c0.4-0.4,0.8-0.8,1.2-1.2c0.4-0.4,0.8-0.8,1.2-1.2
		c2.3-0.2,3.4-2,4.7-3.5c2.3-0.2,3.3-2,4.7-3.4c1.5-0.3,2.7-1.1,3.5-2.4c2.3,0,3.3-2.6,5.5-2.8l0.2,0.2c-3.3,3.7-7,7.1-10,11.1
		c-3.4,4.4-7.8,7.9-12.5,10.9c-0.5,0.3-0.9,0.6-0.9,1.3l-0.3,0.2c-0.8-0.2-1,0.1-0.9,0.9l-0.3,0.3c-0.8-0.2-1,0.1-0.9,0.9l-0.3,0.3
		c-0.8-0.2-1,0.1-0.9,0.9L182,585c-1-0.4-1.8-0.2-2.5,0.6c-1.6,1.6-3.1,3.2-4.7,4.9c-1.5,0-2.4,1-3.4,2c-2.4,2.5-4.8,4.9-7.2,7.4
		c-2.7,0.6-4.1,2.9-5.9,4.8c-0.4,0.4-0.8,0.8-1.2,1.2c-0.4,0.3-0.9,0.7-0.5,1.1c0.4,0.4,0.8-0.1,1.1-0.5c0.4-0.4,0.8-0.8,1.2-1.2
		c2.8-0.5,4.1-2.9,5.9-4.7c1.5,0,2.4-1,3.4-2c2.4-2.5,4.8-4.9,7.2-7.4c0.7-0.2,1.3-0.3,2-0.5l0.2,0.2c-0.4,2.3-2.3,3.6-3.8,5
		c-5.8,5.7-11.1,11.7-16.1,18.2c-2.2,2.8-5.4,4.9-8.4,7c-4.8,3.5-9.3,7.4-14.5,10.4c-1,0.6-1.6,1.7-2.4,2.5
		c-0.4,0.4-0.8,0.8-1.2,1.2c-0.4,0.3-0.9,0.7-0.5,1.1c0.4,0.4,0.8-0.1,1.1-0.5c0.4-0.4,0.8-0.8,1.2-1.2c3.6-1.2,6.1-4,9.4-5.6
		c0.5-0.3,0.7-1.7,1.6-0.6c0.1,0.2-0.3,1.1-0.7,1.5c-4.3,4.3-8.7,8.5-12.8,12.9c-3.9,4.3-7.5,8.9-11.3,13.3c-1,1.2-2.1,2.3-3.2,3.4
		c-1.8,2-4,3.7-5.3,6.2c-0.7,1.3-1.9,2.6-3.2,3.4c-5.4,3.2-8.4,8.5-12.1,13.2c-1.7,2.1-3.8,4-5.7,5.9c-3.9,3.8-7.1,8.2-10.5,12.4
		c-2.8,3.5-6.1,6.6-9.4,9.7c-5.6,5.2-9.5,11.9-15.6,16.6c-0.4-1,0.1-2.5-1.2-3c-0.8-0.3-1.9-0.2-2.8-0.1c-0.9,0.1-1.2,0.9-1.2,1.7
		c0,0.8,0.2,1.6,1.1,1.8c1.1,0.3,2.3,0.3,3.4,0.4c-2.5,2.6-5,5.2-7.5,7.8c-1.3,1.3-2.8,2.6-3.5,4.4c-0.4-1.7-0.3-3.4,0.6-5
		c0.2-0.4,0.2-1.2-0.4-1.5c-0.8-0.4-1.5-0.2-2,0.4c-0.6,0.7-1.1,1.6-1.5,2.4c-1.4,3-1.2,3.3,2.5,4.4c-2.3,2.6-4.3,5.6-8.3,5.7
		c-0.2,0-0.7,1.3-0.6,1.4c2.8,1.6,0.3,2.5-0.3,3.8c-1.6,3.2-4.1,5.5-6.7,7.7l-0.2-0.2c-0.2-1.1,2-2.4,0.2-3.3
		c-1.3-0.6-1.4,1.4-2.1,2.2c-0.5,0.6-0.5,1.4-0.2,2.2l-0.3,0.3c-0.8-0.2-1,0.1-0.9,0.9l-0.2,0.2c-1.9,0.4-2.7,1.9-3.7,3.3
		c-1.7,2.5-3.1,5.4-5.6,7.3c0,0-0.2-0.2-0.2-0.2c1.2-2.6,2.5-5.2,3.7-7.8c0.5-1.2,1.5-2.3,1.3-3.8c-0.6-3.3,1.4-5.3,3.3-7.5
		c3.2-3.6,5.8-7.6,7.4-12.2c0.4-0.3,0.9-0.7,0.5-1.1c-0.4-0.4-0.8,0.1-1.1,0.5c-0.2-0.3-0.5-0.8-0.5-0.9c2.9-2.8,4.3-6.5,6-10
		c1.7-3.3,3.4-6.5,5.3-9.7c4.5-7.2,8.7-14.7,12.9-22.1c1.3-2.3,1.1,0.3,1.6,0.4c1.2,0.3,2.1-0.1,2-1.2c-0.9-6.5,2.7-11.3,6.2-16
		c1.1-1.5,0.3-3.2,1.4-4.3c4.2-3.9,4.6-9.4,7-14.1c3.2-6.2,6.5-12.3,10-18.4c1.1-1.9,2-3.7,2.7-5.7c1.7-5.3,3.9-10.5,5.6-15.8
		c0.5-1.4,1.3-2.4,2.3-3.3c7-5.9,11.2-13.9,16.1-21.3c2.3-3.5,4.5-7.2,6.8-10.8c2.5-3.7,4.9-7.4,6.8-11.5c0.5-1.1,0.9-2.2,1.7-3
		c1.9-1.9,2.7-4.3,3.7-6.7c2-4.6,5-8.7,7.6-13c5.1-8.2,10.1-16.6,14.5-25.2c0.4-0.9,0.9-1.7,1.2-2.6c0.2-0.5,0.1-1.3-0.5-1.5
		c-0.5-0.2-1.2-0.1-1.6,0.2c-1.4,1.1-2.6,2.4-3.9,3.6c-0.3,0.2-0.8,0.5-1,0.4c-1.1-0.5,0-0.9,0.2-1.2c6.7-8.1,12.1-17,17.8-25.7
		c0.5-0.8,1.3-1.5,1.9-2.2c0,0,0.2,0.2,0.2,0.2c-1.5,3.2-3,6.5-4.7,9.6c-1,1.8-0.7,3.5-0.4,5.3c-0.9,0.5-1.1,1.4-1.2,2.3
		c-0.4,0.3-0.9,0.7-0.5,1.1c0.4,0.4,0.8-0.1,1.1-0.5c0.9-0.5,1-1.4,1.2-2.3c1.6-1.6,3-3.9,5-4.6c2.8-1,4.3-2.9,6-4.8
		c0.4,1.3-0.1,3.3,2.2,3.3c1.1,0,1.8-0.7,1.8-1.8c0-2.3-1.9-1.9-3.3-2.2c-0.3-2.3,1.7-3.6,2.7-4.9c4-5.2,7.5-10.8,11.3-16.2
		c6.8-9.9,13.3-20,18.7-30.8c2.2-4.5,5.4-8.5,7.7-13c0.9-1.9,2.7-3.2,5-4.2c3.1-1.4,5.3-4.8,8.2-7c3.4-2.7,3.4-7.1,5.5-10.5
		c0.7-1.2-0.7-1.2-1.2-1c-3.5,1.8-2.7,0.1-1.8-2.1c0.3-0.7-0.4-1.9-1.2-1.4c-2.7,1.7-3.6-1.1-5.2-1.8c-1.3-0.6-2.1-2.7-4-1.4
		c-1.5,1-1.7,2.5-1.1,4.1l-0.3,0.3c-3.8-0.2-3.8-0.1-3.2,4.4l-0.3,0.3c-3.7-0.3-4.1,0-4.5,3.3l-0.3,0.2c-1.9-0.5-2.5,0.2-2,2
		C203.4,423.8,203,424.1,203,424.1z M135.5,414.9c0.4-0.4,0.8-0.8,1.2-1.2c0.9-0.5,1-1.4,1.2-2.4c0.4-0.3,0.9-0.7,0.5-1.1
		c-0.4-0.4-0.8,0.1-1.1,0.5c-0.9,0.5-1.1,1.4-1.2,2.3c-0.4,0.4-0.8,0.8-1.2,1.2c-0.4,0.4-0.8,0.8-1.2,1.2c-0.4,0.3-0.9,0.7-0.5,1.1
		c0.4,0.4,0.8-0.1,1.1-0.5C134.7,415.7,135.1,415.3,135.5,414.9z M194.2,413.7c0.4-0.4,0.8-0.8,1.2-1.2c0.4-0.4,0.8-0.8,1.2-1.2
		c0.4-0.3,0.9-0.7,0.5-1.1c-0.4-0.4-0.8,0.1-1.1,0.5c-0.4,0.4-0.8,0.8-1.2,1.2c-0.4,0.4-0.8,0.8-1.2,1.2c-0.4,0.4-0.8,0.8-1.2,1.2
		c-0.4,0.3-0.9,0.7-0.5,1.1c0.4,0.4,0.8-0.1,1.1-0.5C193.4,414.5,193.8,414.1,194.2,413.7z M58,711.9c0.4-0.4,0.8-0.8,1.2-1.2
		c0.4-0.4,0.8-0.8,1.2-1.2c1.3-1.1,2.7-2.5,4-3.1c3.5-1.7,3.6-4.3,3.1-7.5c1.3-0.9,2.3-1.9,2.3-3.5c0.9-0.5,1-1.4,1.2-2.3
		c4.5-1.5,4.8-5.7,5.8-9.3c2.2-0.6,3.1-2,2.6-4.2c-0.2-0.7-0.8-1.2-1.2-1.8c-0.2,0.5-0.5,1-0.7,1.5c-0.5,1.2-0.9,2.5-1.4,3.7
		c-2.7,2.7-4.1,6.2-5.8,9.4c-0.9,0.5-1,1.4-1.2,2.3c-1.2,0.9-2.1,2-2.3,3.5c-2.8,3.2-5.2,6.7-7,10.6c-0.4,0.4-0.8,0.8-1.2,1.2
		c-0.4,0.4-0.8,0.8-1.2,1.2c-0.4,0.3-0.9,0.7-0.5,1.1C57.3,712.8,57.7,712.3,58,711.9z M144.8,413.7c0.4-0.3,0.9-0.7,0.5-1.1
		c-0.4-0.4-0.8,0.1-1.1,0.5c-0.4,0.3-0.9,0.7-0.5,1.1C144.2,414.6,144.6,414.1,144.8,413.7z M80.3,667.3c0.4-0.4,0.8-0.8,1.2-1.2
		c0.4-0.4,0.9-0.7,1.3-1.1c0.3-0.4,0.8-0.9,0.1-1.4c-0.5-0.3-1.1-0.3-1.5,0.3c-0.3,0.5-0.4,1-0.6,1.6c-0.4,0.4-0.8,0.8-1.2,1.2
		c-0.4,0.3-0.9,0.7-0.5,1.1C79.6,668.2,80,667.7,80.3,667.3z M104.9,634.5c0.4-0.3,0.9-0.7,0.5-1.1c-0.4-0.4-0.8,0.1-1.1,0.5
		c-0.4,0.3-0.9,0.7-0.5,1.1C104.3,635.3,104.6,634.8,104.9,634.5z M107.3,619.2c0.4-0.3,0.9-0.7,0.5-1.1c-0.4-0.4-0.8,0.1-1.1,0.5
		c-0.4,0.3-0.9,0.7-0.5,1.1C106.6,620.1,107,619.6,107.3,619.2z M375,386.7c0.4-0.3,0.9-0.7,0.5-1.1c-0.4-0.4-0.8,0.1-1.1,0.5
		c-0.4,0.3-0.9,0.7-0.5,1.1C374.3,387.6,374.7,387.1,375,386.7z M131.3,419c-0.4,0.3-0.9,0.7-0.5,1.1c0.4,0.4,0.8-0.1,1.1-0.5
		c0.4-0.3,0.9-0.7,0.5-1.1C132,418.1,131.6,418.6,131.3,419z M221.2,535.8c0.4-0.4,0.8-0.8,1.2-1.2c0.4-0.3,0.9-0.7,0.5-1.1
		c-0.4-0.4-0.8,0.1-1.1,0.5c-0.4,0.4-0.8,0.8-1.2,1.2c-0.4,0.3-0.9,0.7-0.5,1.1C220.5,536.7,220.9,536.2,221.2,535.8z M224.7,531.1
		c0.4-0.4,0.8-0.8,1.2-1.2c0.4-0.3,0.9-0.7,0.5-1.1c-0.4-0.4-0.8,0.1-1.1,0.5c-0.4,0.4-0.8,0.8-1.2,1.2c-0.4,0.3-0.9,0.7-0.5,1.1
		C224,532,224.4,531.5,224.7,531.1z M137.8,421.9c0.4-0.4,0.8-0.8,1.2-1.2c0.4-0.3,0.9-0.7,0.5-1.1c-0.4-0.4-0.8,0.1-1.1,0.5
		c-0.4,0.4-0.8,0.8-1.2,1.2c-0.4,0.3-0.9,0.7-0.5,1.1C137.1,422.8,137.5,422.3,137.8,421.9z M212.9,438.4c0.4-0.4,0.8-0.8,1.2-1.2
		c0.4-0.3,0.9-0.7,0.5-1.1c-0.4-0.4-0.8,0.1-1.1,0.5c-0.4,0.4-0.8,0.8-1.2,1.2c-0.4,0.3-0.9,0.7-0.5,1.1
		C212.3,439.3,212.7,438.8,212.9,438.4z M352.7,96.7c0.4-0.3,0.9-0.7,0.5-1.1c-0.4-0.4-0.8,0.1-1.1,0.5c-0.4,0.3-0.9,0.7-0.5,1.1
		C352,97.6,352.4,97.1,352.7,96.7z M136.6,432.5c0.4-0.4,0.8-0.8,1.2-1.2c0.4-0.3,0.9-0.7,0.5-1.1c-0.4-0.4-0.8,0.1-1.1,0.5
		c-0.4,0.4-0.8,0.8-1.2,1.2c-0.4,0.3-0.9,0.7-0.5,1.1C136,433.4,136.3,432.9,136.6,432.5z M177.1,426c-0.4,0.4-0.8,0.8-1.2,1.2
		c-2.2,0-4.5,3.3-6.7-0.1c-0.3-0.4-0.7-0.5-0.9-0.2c-0.9,1.2-1.9,2.5-2.5,3.8c-0.3,0.7,0.3,1.7,1.2,1.5c3.5-0.7,7.4-0.7,9.6-4.4
		c0.4-0.4,0.8-0.8,1.2-1.2c0.4-0.3,0.9-0.7,0.5-1.1C177.8,425.1,177.4,425.6,177.1,426z M163.6,426.6c0.4-0.3,0.9-0.7,0.5-1.1
		c-0.4-0.4-0.8,0.1-1.1,0.5c-0.4,0.3-0.9,0.7-0.5,1.1C163,427.5,163.4,427,163.6,426.6z M127.2,426.6c0.4-0.4,0.8-0.8,1.2-1.2
		c0.9-0.5,1-1.4,1.2-2.4c0.9-0.6,0.9-1.2,0-1.8c0-0.4-0.1-0.8-0.1-1.1c-0.1-2.2-1.5-2.4-3.1-2.2c-0.7,0.1-1.6,0.2-1.6,1.2
		c0,1.6,1.1,2.3,2.5,2.6c0.6,0.1,1.1,0.1,1.7,0.2l0,0.5c-0.9,0.6-1,1.5-1.1,2.4c-0.4,0.4-0.8,0.8-1.2,1.2c-0.4,0.3-0.9,0.7-0.5,1.1
		C126.6,427.5,127,427,127.2,426.6z M144.8,430.2c0.9-0.5,1-1.4,1.2-2.3c0.6-0.5,1.2-1,1.6-1.6c3.4-5.4,5.5-11.6,10.3-16.1
		c0.3-0.3,0.6-0.8,0.5-1c-2-3.1,1.2-3.4,2.4-4.9c2.3-2.8,4.2-6,6.4-9c1.6-2.1-0.2-3.7-0.6-5.5c-0.4-1.6-2,0.4-2.9-0.3
		c-1-0.8-1.9-0.3-2.5,0.5c-0.7,1-0.8,2.2,0.1,3.2c0.4,0.4,1.1,0.6,1.3,1.1c0.5,1.1,0.7,2.3-0.2,3.2c-0.8,0.8-1.9,0.5-2.6-0.2
		c-1.6-1.7-2.6-1.4-3.2,0.7c-0.6,2-1.6,4-1.7,6.1c-0.1,2.1-1,3.6-2.3,5.1c-1.4,1.6-3.2,3.5-3.4,5.3c-0.3,4.6-2.6,8.5-3.9,12.7
		c-0.9,0.5-1.1,1.4-1.2,2.3c-0.4,0.3-0.9,0.7-0.5,1.1C144.2,431,144.6,430.5,144.8,430.2z M92.1,649.7c0.4-0.4,0.9-0.7,1.2-1.1
		c0.3-0.4,0.8-0.9,0.1-1.3c-0.5-0.3-1.1-0.2-1.5,0.3c-0.3,0.5-0.4,1-0.5,1.6c-0.7,0.7-1.5,1.6-0.4,2.2
		C91.7,651.6,91.8,650.4,92.1,649.7z M161.3,433.7c0.2,0,0.4,0,0.6-0.1c0.8-0.2,2.3,0.2,2.1-1c-0.2-0.9-1.6-0.7-2.5-0.3
		c-0.3,0.1-0.5,0.5-0.8,0.7c-0.4,0.3-0.9,0.7-0.5,1.1C160.6,434.6,161,434.1,161.3,433.7z M231.8,262.3c0.4-0.4,0.9-0.7,1.2-1.1
		c0.3-0.4,0.8-0.9,0.1-1.3c-0.5-0.3-1.1-0.2-1.5,0.3c-0.3,0.5-0.4,1-0.5,1.6c-0.7,0.7-1.5,1.6-0.4,2.2
		C231.4,264.2,231.6,262.9,231.8,262.3z M127.2,436c1.5-0.1,2.2-0.9,2.4-2.3c2-2.7,4.6-5,5.8-8.2c0.4-0.3,0.9-0.7,0.5-1.1
		c-0.4-0.4-0.8,0.1-1.1,0.5c-2.8,2.2-5.1,4.6-5.9,8.2c-0.8,0.8-1.6,1.6-2.3,2.4c-0.4,0.3-0.9,0.7-0.5,1.1
		C126.6,436.9,127,436.4,127.2,436z M323.4,153.6c-0.3-0.6-0.4-1.9-1.1-1.6c-1.2,0.6-0.4,1.5,0.4,2.2c0,0.4,0,0.8,0.1,1.1
		c0.2,1-0.4,2.7,0.9,2.6c1-0.1,0.7-1.9,0.5-3C324.2,154.5,323.7,154.1,323.4,153.6z M315.7,149.5c0.3,0.4,0.7,0.9,1.1,0.5
		c0.4-0.4-0.1-0.8-0.5-1.1c0-0.6,0-1.1-0.1-1.7c-0.1-0.8,0.3-2.2-0.9-2.2c-1.3,0-1.7,1.3-1.8,2.5
		C313.4,148.9,314.4,149.4,315.7,149.5z M148.9,403.7c-2,1.1-2.3,3.5-3.9,5c-0.7,0.7,0,1.4,0.6,1.9c0.6,0.4,1.1,0.1,1.3-0.4
		c0.8-1.9,2.3-3.6,2.6-5.8c0.4-0.3,0.9-0.7,0.5-1.1C149.6,402.8,149.2,403.3,148.9,403.7z M315.5,178.9c0,0.2,0.1,0.4,0.1,0.5
		c0.3,0.8-0.2,2.3,1,2.1c0.9-0.2,0.7-1.5,0.3-2.4c-0.1-0.3-0.5-0.5-0.7-0.8c-0.4-1.8,0.4-3.8-0.7-5.5c-0.3-0.4-0.9-0.6-1.4-0.9
		c-0.2,0.5-0.6,0.9-0.7,1.4C313.2,175.5,314.3,177.2,315.5,178.9z M348.9,107.1l-0.2-0.2c0.3-0.7,1.8-1.4,0.4-2.2
		c-0.8-0.5-2.1-0.3-2.5,0.7c-0.5,1.4-0.9,3.1,0.8,4c0.7,0.4,1.6,1.6,2.4,0.4C350.4,108.8,350.6,107.4,348.9,107.1z M141.9,434.2
		c-2.5,0.2-3.8,2.6-5.9,3.5c-0.3,0.1-0.5,0.7-0.5,1c0.1,0.3,0.6,0.6,0.9,0.6c2,0.1,3.8-0.8,5.4-1.8c0.6-0.3,0.5-1.8,0.7-2.7
		c0.4-0.3,0.9-0.7,0.5-1.1C142.5,433.3,142.1,433.8,141.9,434.2z M94.3,670.9c1.2-0.8,1.9-2.3,1.9-3.4c0-2.6-0.7-5.2-1.1-7.8
		c0-0.2-0.3-0.4-0.4-0.4c-0.3,0.1-0.7,0.3-0.8,0.6c-1.4,2-1.8,4.3-1,6.6c0.4,1.3,1,2.5,0.7,3.9c-0.4,0.3-0.9,0.7-0.5,1.1
		C93.7,671.7,94.1,671.2,94.3,670.9z M390.8,26.8c-1.4,1.6-3.6,2.2-4.7,4.2c-0.3,0.6-1,1.2-0.2,2c2.1,2.1,4.8,1.5,6-1.2
		c0.8-1.7,0.3-3-0.6-4.3c0.4-0.3,0.9-0.7,0.5-1.1C391.5,25.9,391.1,26.4,390.8,26.8z M327.7,141.3c-0.3-1.3-0.6-2.6-1-3.9
		c-0.6-2.4-2.9-3.5-4.6-1.9c-1.5,1.4-3.1,3.2-3.6,5.1c-0.4,1.6,0.6,3.7,1.7,5.3c0.2,0.3,0.6,0.5,1,0.5c0.2,0,0.6-0.4,0.7-0.7
		c0.1-0.3,0.1-0.8,0.1-1.1c0.4-2.9,0.4-2.9,3.2-1.8C326.2,143.2,327.6,142.4,327.7,141.3z M310.6,151.9c-0.9-0.1-3.8,3-3.8,4.1
		c0,4.3,3.7,7,5.1,10.7c0.1,0.2,1.2,0.2,1.4-0.5c0.2-0.7,0.5-1.6,0.3-2.2c-0.9-3.7-2.3-7.4-2.4-11.2
		C311.3,152.4,310.9,152.2,310.6,151.9z M372.2,356c-0.1-0.4,0-0.8-0.2-1.1c-1.9-2.1-4.9-2.7-6.8-4.9c-0.4-0.5-1.6-0.1-2,0.6
		c-0.5,0.9-0.7,2.2,0.3,2.5c1.8,0.6,2.8,1.8,3.8,3.1c0.9,1.2,2.4,1,3.8,0.8C371.7,357,372.1,356.7,372.2,356z M89.1,679.4
		c-0.3-0.3-0.5-0.6-0.8-0.7c-0.6-0.1-1.4-0.2-1.7,0.1c-1.4,1.5-3.1,3-3.9,4.9c-0.8,1.7-2.9,2.7-2.6,4.9c2.5,0.4,3.2-2.1,4.7-3.3
		c1.4-1.2,3-2.4,3.7-4.3C88.6,680.5,88.8,680,89.1,679.4z M334.9,136c-0.4-1.9-0.8-3.8-1.3-5.7c-0.2-0.9-1-1.2-1.8-0.9
		c-0.8,0.3-1.7,1.1-1.4,1.6c0.8,1.7,0.6,3.4,0.8,5.2c0.1,1,0.8,2.1,1.7,2.1C334.2,138.4,334.7,137.2,334.9,136z M103.6,650.5
		C103.6,650.5,103.6,650.5,103.6,650.5c0-1.4,0.1-2.7,0-4.1c0-0.9,0.3-2.2-0.8-2.3c-0.4-0.1-1.1,1.4-1.5,2.3
		c-0.3,0.7-0.5,1.7-0.2,2.2c1.4,2.3,0.8,4.9,1,7.4c0.1,0.6,0.3,1.2,0.8,1.2c0.2,0,0.6-0.9,0.6-1.4
		C103.7,653.9,103.6,652.2,103.6,650.5z M311,206.9c-0.3,0.2-0.6,0.4-0.9,0.6c-1.4,1.6-0.9,3.2,0.1,4.7c0.5,0.8,0.5,2.8,1.9,2.1
		c0.9-0.4,1.8-2,1.4-3.5c-0.3-1.1-0.7-2.2-1.1-3.2C312.1,207,311.6,206.8,311,206.9z M370,63.1c0.1-1.2-0.5-1.9-1.6-2
		c-1.8-0.1-2.9,0.8-3.2,2.6c-0.2,1,0.1,1.9,1.3,2.2C368.3,66.3,369.9,65,370,63.1z M84.8,670.4c-0.1-0.3-0.1-0.9-0.3-1.4
		c-0.3-0.8-1-0.5-1.3-0.1c-1.2,1.5-2.7,2.9-1.8,5c0.3,0.7,0.4,2.1,1.6,1.9c0.5-0.1,0.8-1.2,1.2-1.8C84.9,673,84.8,671.9,84.8,670.4z
		 M336.9,147.5c-0.3-0.8-0.5-1.5-0.7-2.3c-0.5-1.5-1.6-1.8-2.8-0.7c-0.8,0.6-0.1,5.3,0.8,5.6c0.1,0.1,0.4-0.1,0.5-0.2
		C335.6,149.3,336.5,148.5,336.9,147.5z M340.8,132.2c-0.4-2.6-0.9-5.2-1.3-7.9c0-0.2-0.7-0.6-0.8-0.5c-0.5,0.3-1.3,0.9-1.2,1.1
		c1.1,2.5-0.1,5.5,1.8,7.8c0.2,0.3,0.5,0.8,0.7,0.8C340.5,133.4,340.7,132.9,340.8,132.2z M229.2,405.1c-0.1-0.8,0.1-1.9-1.2-2.2
		c-1.3-0.3-2.7,1.4-2.6,3c0.1,1.1,0.8,1.7,1.9,1.6C228.9,407.6,229.2,406.5,229.2,405.1z M306.5,336.1c-0.1-0.8-0.4-1.4-1.4-1.5
		c-1.3-0.1-2.8-0.5-3.3,1.3c-0.3,1,0,1.9,1.1,2.3C304.5,338.7,306.3,337.6,306.5,336.1z M379.6,62.4c1.3,0.1,2-0.4,2.2-1.5
		c0.2-1.6-0.6-2.7-1.9-3.1c-1.1-0.4-1.7,0.5-1.8,1.6C378,60.7,377.8,62.2,379.6,62.4z M309.6,335.7c0,0-0.7,0.5-0.8,1.7
		c-0.1,1,0.2,1.9,1.4,2.1c1.4,0.2,2.2-0.4,2.3-1.8C312.5,336.6,311.9,335.9,309.6,335.7z M45.2,718.6c-1.2,0-1.7,0.8-1.7,1.8
		c0,1.4,0.9,2,2.3,1.8c1.2-0.2,1.5-1.1,1.4-2.1C47,719,46.3,718.6,45.2,718.6z M54.6,707c0.9,0,1.7-0.2,1.9-1.4
		c0.2-1.4-0.4-2.2-1.8-2.3c-1.1,0-1.8,0.6-1.8,1.7C52.8,706.1,53.3,706.9,54.6,707z M89.2,672.8c0,1.6-0.1,2.3,0,3.1
		c0.1,0.5,0.5,1.3,0.7,1.3c0.8,0,1.4-0.6,1.7-1.4c0.8-1.9-0.4-3.3-1.3-4.7c-0.3-0.4-0.7-0.3-0.8,0.2
		C89.3,672.1,89.2,672.8,89.2,672.8z M318.9,193.5c0.2-0.1,0.3-0.2,0.5-0.3c1.4-1.3,0.7-5.7-1-6.2c-0.3-0.1-0.9,0.3-0.9,0.4
		c0.3,2,0.7,3.9,1.1,5.9C318.6,193.3,318.8,193.4,318.9,193.5z M105.9,450.6c0.1-1.1-0.4-1.9-1.5-2c-1-0.1-1.9,0.1-2.1,1.4
		c-0.2,1.4,0.3,2.3,1.8,2.3C105.1,452.3,105.8,451.7,105.9,450.6z M115.6,440.5c1.1,0.1,1.9-0.4,2-1.5c0.1-1-0.1-1.9-1.4-2.1
		c-1.4-0.2-2.3,0.3-2.3,1.8C113.9,439.7,114.4,440.4,115.6,440.5z M124.6,436.7c0.1-0.9,0-1.8-1.1-2.1c-1-0.3-2-0.2-2.4,0.9
		c-0.4,1.1-0.3,2.3,1.3,2.6C123.4,438.3,124.3,438,124.6,436.7z M378.7,50.7c0.9,0,1.7-0.2,1.9-1.4c0.2-1.4-0.4-2.2-1.8-2.3
		c-1.1,0-1.8,0.6-1.8,1.7C376.9,49.8,377.3,50.5,378.7,50.7z M347.8,85.4c0,0-0.5-0.7-1.7-0.8c-1-0.1-1.9,0.2-2.1,1.4
		c-0.2,1.4,0.4,2.2,1.8,2.3C347,88.3,347.7,87.7,347.8,85.4z M170.8,346.6c1.1,0.1,1.9-0.4,2-1.5c0.1-1-0.1-1.9-1.4-2.1
		c-1.4-0.2-2.3,0.3-2.3,1.8C169.1,345.8,169.6,346.5,170.8,346.6z M315,194.9c0-1.7,0.1-3.3-1.5-4.2c-0.4-0.2-0.7-0.2-0.9,0.3
		c-0.7,1.4,0.2,2.5,0.7,3.7c0.2,0.5,0.2,1.1,0.4,1.7c0.1,0.2,0.5,0.3,0.8,0.4c0.1,0,0.3-0.2,0.4-0.4
		C314.9,195.9,314.9,195.3,315,194.9z M236,406.4c0,1.6,0.5,2.4,1.6,2.2c0.9-0.2,1.9-0.8,1.6-1.9c-0.2-0.6-0.9-1.3-1.6-1.5
		C236.6,405,236.1,405.8,236,406.4z M343.9,123.3c0.1,0.8,0.2,1.9,0.5,3c0.1,0.2,0.6,0.5,0.9,0.5c0.6,0,1.1-0.3,0.7-1
		c-0.8-1.5-0.3-3.1-0.7-4.6c-0.1-0.3-0.4-0.6-0.6-0.9c-0.2,0.3-0.6,0.5-0.7,0.9C343.9,121.7,344,122.3,343.9,123.3z M381.6,37.2
		c0.1,0.7,0.3,1.5,1.2,1.5c1.3,0,1.4-1,1.3-1.9c0-0.8-0.5-1.4-1.4-1.3C381.7,35.6,381.7,36.4,381.6,37.2z M232.7,408
		c-0.1-0.7-0.3-1.5-1.2-1.5c-1.3,0-1.4,1-1.3,1.9c0,0.8,0.5,1.4,1.4,1.3C232.5,409.6,232.6,408.8,232.7,408z M89.5,664
		c-0.1-0.7-0.2-1.5-1.2-1.5c-1.3,0-1.4,1-1.3,1.9c0,0.8,0.5,1.4,1.4,1.3C89.3,665.6,89.4,664.8,89.5,664z M62.4,687.3
		c-0.2-0.7-0.3-1.5-1.3-1.4c-1,0.1-1.2,0.8-1.2,1.6c0,0.7,0.1,1.6,1.1,1.7C62.3,689.3,62.4,688.3,62.4,687.3z M355.8,347.4
		c-0.2-0.5-0.4-1-1.1-0.8c-0.6,0.1-0.9,0.4-1,1c-0.1,1.1,0.7,1.2,1.4,1.1C355.6,348.6,355.9,348,355.8,347.4z M169.4,352.3
		c0.5-0.2,1-0.4,0.8-1.1c-0.1-0.6-0.4-0.9-1-1c-1.1-0.1-1.2,0.7-1.1,1.4C168.3,352.1,168.8,352.3,169.4,352.3z M380.4,41
		c-0.2-0.5-0.4-1-1.1-0.9c-0.6,0.1-0.9,0.4-1,1c-0.1,1.1,0.7,1.2,1.4,1.1C380.2,42.1,380.5,41.6,380.4,41z M390.9,41.3
		c-0.3-0.1-0.7,0.3-0.8,0.8c-0.1,0.7,0.1,1.4,1.1,1.4c0.6,0,0.9-0.3,1-1C392.2,41.8,391.9,41.5,390.9,41.3z M374.6,70.4
		c0.1-0.3-0.3-0.7-0.8-0.8c-0.7-0.1-1.4,0.1-1.4,1.1c0,0.6,0.3,0.9,1,1C374.1,71.7,374.4,71.3,374.6,70.4z M371,75.2
		c0-0.6-0.4-1-1-1c-1-0.1-1.2,0.6-1.1,1.4c0.1,0.6,0.6,0.8,1.2,0.7C370.7,76.2,371.1,75.9,371,75.2z M376.1,361.9
		c-0.7-0.1-1.2,0.2-1.3,0.7c-0.1,0.8,0.1,1.4,1.1,1.4c0.6,0,0.9-0.3,1-1C376.9,362.3,376.6,362,376.1,361.9z M343.2,111.8
		c-0.3,0.1-0.8,0.1-1,0.3c-0.3,0.5,0.9,2.9,1.3,2.7c0.3-0.1,0.6-0.5,0.6-0.8C344.3,113.1,344.3,112.1,343.2,111.8z M135.1,397.1
		c-0.6,0-1,0.4-1,1c-0.1,1,0.6,1.2,1.4,1.1c0.6-0.1,0.8-0.6,0.7-1.2C136.1,397.4,135.7,397,135.1,397.1z M315.1,334.9
		c-0.7-0.1-1.2,0.2-1.3,0.7c-0.1,0.8,0.1,1.4,1.1,1.4c0.6,0,0.9-0.3,1-1C315.9,335.3,315.6,335,315.1,334.9z M188.3,313.8
		c-0.7-0.1-1.2,0.2-1.3,0.7c-0.1,0.8,0.1,1.4,1.1,1.4c0.6,0,0.9-0.3,1-1C189.1,314.2,188.7,313.9,188.3,313.8z M318.3,204.1
		c-0.4-0.8-0.8-1.7-1.9-1.5c-0.2,0-0.4,0.7-0.4,1c0.2,1,0.7,1.8,1.9,1.7C318,205.1,318.1,204.5,318.3,204.1z M128,410.9
		c0-0.6-0.4-0.8-1-0.9c-1-0.1-1.2,0.6-1.1,1.4c0.1,0.6,0.6,0.8,1.2,0.7C127.7,412,128.1,411.7,128,410.9z M111.5,445.2
		c-0.3-0.1-0.7,0.3-0.8,0.8c-0.1,0.7,0.1,1.4,1.1,1.4c0.6,0,0.9-0.3,1-1C112.8,445.7,112.4,445.4,111.5,445.2z M74.3,659.9
		c0.5-0.2,1-0.4,0.8-1.1c-0.1-0.6-0.4-0.9-1-1c-1.1-0.1-1.2,0.7-1.1,1.4C73.2,659.7,73.7,660,74.3,659.9z M122.1,426.4
		c0.1-0.7-0.3-1-0.8-1.1c-0.6-0.1-1.1,0.1-1.2,0.7c-0.1,0.7,0,1.5,1.1,1.4C121.7,427.4,122.1,427,122.1,426.4z M132.6,405.2
		c-0.3-0.1-0.7,0.3-0.8,0.8c-0.1,0.7,0.1,1.4,1.1,1.4c0.6,0,0.9-0.3,1-1C133.9,405.8,133.6,405.5,132.6,405.2z M355.5,105.3
		c0.7-0.6,0.5-1.4,0.3-2.1c0-0.2-0.6-0.5-0.7-0.4c-0.8,0.5-0.5,1.3-0.4,2C354.8,105,355.2,105.1,355.5,105.3z M322.1,174.5
		c-0.3-0.5-0.6-1-0.8-1.5c-0.3,0.5-0.7,0.9-0.7,1.4c0,0.5,0.4,1,0.6,1.4C321.5,175.5,321.8,175,322.1,174.5z M88.3,657.4
		c-0.7-0.5-1-0.9-1.3-0.9c-0.7-0.1-1.1,0.3-1.2,0.9c-0.1,0.6,0,1.2,0.9,0.9C87.3,658.2,87.8,657.8,88.3,657.4z M99.8,662
		c0.3-0.4,0.9-0.8,0.9-1.3c0.1-0.7-0.7-0.8-1.2-0.6c-0.6,0.2-0.8,0.8-0.7,1.4C98.9,661.7,99.4,661.8,99.8,662z M326.8,168.6
		c-0.3-0.5-0.6-1-0.8-1.5c-0.3,0.5-0.7,0.9-0.7,1.4c0,0.5,0.4,1,0.6,1.4C326.2,169.6,326.5,169.1,326.8,168.6z M318.4,157.8
		c0-0.6-0.2-1.1-0.9-0.9c-0.6,0.2-0.5,0.9-0.5,1.5c0,0.6,0.2,1.1,0.9,0.9C318.5,159,318.4,158.3,318.4,157.8z M350,116.6
		c-0.1-0.3-0.3-0.6-0.4-0.9c-0.2,0.2-0.6,0.3-0.7,0.5c0,0.3,0.2,0.6,0.3,1C349.5,116.9,349.7,116.7,350,116.6z M181.7,398.9
		c0.1-0.3,0.4-0.7,0.4-1c0-0.2-0.4-0.4-0.7-0.6c-0.1,0.3-0.4,0.6-0.3,0.9C181,398.5,181.4,398.7,181.7,398.9z M323.6,183.6
		c-0.2,0.3-0.5,0.6-0.5,0.8c0,0.3,0.3,0.6,0.5,0.9c0.2-0.3,0.5-0.6,0.5-0.9C324.1,184.2,323.8,183.9,323.6,183.6z M320.2,169.9
		c0.1-0.3,0.4-0.7,0.4-1c0-0.2-0.4-0.4-0.7-0.6c-0.1,0.3-0.4,0.6-0.3,0.9C319.6,169.6,320,169.7,320.2,169.9z M296.4,332.8
		c0.2,0.2,0.3,0.7,0.6,0.7c0.3,0,0.6-0.2,0.9-0.4c-0.2-0.2-0.3-0.6-0.5-0.7C297.1,332.4,296.7,332.7,296.4,332.8z M318.9,161.3
		c-0.2,0.3-0.5,0.6-0.5,0.8c0,0.3,0.3,0.6,0.5,0.9c0.2-0.3,0.5-0.6,0.5-0.9C319.4,161.9,319.1,161.6,318.9,161.3z M258,220.4
		c0.1-0.3,0.4-0.7,0.4-1c0-0.2-0.4-0.4-0.7-0.6c-0.1,0.3-0.4,0.6-0.3,0.9C257.4,220.1,257.7,220.2,258,220.4z M328.4,151.1
		c0.1-0.3,0.4-0.7,0.4-1c0-0.2-0.4-0.4-0.7-0.6c-0.1,0.3-0.4,0.6-0.3,0.9C327.8,150.8,328.2,151,328.4,151.1z M176,424.6
		c-0.1-0.1-0.2-0.3-0.4-0.4c-0.1,0.1-0.4,0.2-0.4,0.4c0,0.1,0.2,0.4,0.3,0.4C175.7,424.9,175.9,424.7,176,424.6z M139.6,428.1
		c-0.2-0.5-0.5-0.5-0.7,0c0,0.1,0.2,0.4,0.3,0.4C139.4,428.4,139.5,428.2,139.6,428.1z M123.2,431.6c-0.2-0.5-0.5-0.5-0.7,0
		c0,0.1,0.2,0.4,0.3,0.4C122.9,432,123.1,431.8,123.2,431.6z M358.8,86.8c0.1-0.1,0.3-0.2,0.4-0.4c-0.1-0.1-0.2-0.4-0.4-0.4
		c-0.1,0-0.4,0.2-0.4,0.3C358.4,86.5,358.7,86.7,358.8,86.8z M363.5,89.5c-0.5,0.2-0.5,0.5,0,0.7c0.1,0,0.4-0.2,0.4-0.3
		C363.9,89.8,363.6,89.7,363.5,89.5z M354.5,93.5c-0.2-0.5-0.5-0.5-0.7,0c0,0.1,0.2,0.4,0.3,0.4C354.2,93.8,354.4,93.6,354.5,93.5z
		 M132.6,435.2c-0.2-0.5-0.5-0.5-0.7,0c0,0.1,0.2,0.4,0.3,0.4C132.3,435.5,132.5,435.3,132.6,435.2z M352.9,120.8
		c0.1-0.1,0.3-0.2,0.4-0.4c-0.1-0.1-0.2-0.4-0.4-0.4c-0.1,0-0.4,0.2-0.4,0.3C352.6,120.6,352.8,120.7,352.9,120.8z M329.8,125.2
		c-0.1-0.1-0.2-0.3-0.4-0.4c-0.1,0.1-0.4,0.2-0.4,0.4c0,0.1,0.2,0.4,0.3,0.4C329.6,125.5,329.7,125.3,329.8,125.2z M119.2,436.7
		c0.1-0.1,0.3-0.2,0.4-0.4c-0.1-0.1-0.2-0.4-0.4-0.4c-0.1,0-0.4,0.2-0.4,0.3C118.9,436.4,119.1,436.5,119.2,436.7z M341.2,139.6
		c0.1-0.1,0.3-0.2,0.4-0.4c-0.1-0.1-0.2-0.4-0.4-0.4c-0.1,0-0.4,0.2-0.4,0.3C340.8,139.3,341,139.5,341.2,139.6z M324.8,164.7
		c-0.5,0.2-0.5,0.5,0,0.7c0.1,0,0.4-0.2,0.4-0.3C325.1,165,324.9,164.8,324.8,164.7z M311.9,216.3c-0.5,0.2-0.5,0.5,0,0.7
		c0.1,0,0.4-0.2,0.4-0.3C312.2,216.6,312,216.5,311.9,216.3z M313,219.9c-0.5,0.2-0.5,0.5,0,0.7c0.1,0,0.4-0.2,0.4-0.3
		C313.4,220.1,313.2,220,313,219.9z M304.8,262.1c-0.5,0.2-0.5,0.5,0,0.7c0.1,0,0.4-0.2,0.4-0.3
		C305.2,262.4,304.9,262.3,304.8,262.1z M174.8,344.8c-0.1-0.1-0.2-0.3-0.4-0.4c-0.1,0.1-0.4,0.2-0.4,0.4c0,0.1,0.2,0.4,0.3,0.4
		C174.6,345.1,174.7,344.9,174.8,344.8z M129.9,570.9c-0.5,0.2-0.5,0.5,0,0.7c0.1,0,0.4-0.2,0.4-0.3
		C130.2,571.2,130,571.1,129.9,570.9z M128.7,573.3c-0.5,0.2-0.5,0.5,0,0.7c0.1,0,0.4-0.2,0.4-0.3
		C129,573.6,128.8,573.4,128.7,573.3z M147.4,393.2c0.1-0.1,0.3-0.2,0.4-0.4c-0.1-0.1-0.2-0.4-0.4-0.4c-0.1,0-0.4,0.2-0.4,0.3
		C147.1,393,147.3,393.1,147.4,393.2z M146.3,395.6c0.1-0.1,0.3-0.2,0.4-0.4c-0.1-0.1-0.2-0.4-0.4-0.4c-0.1,0-0.4,0.2-0.4,0.3
		C145.9,395.3,146.1,395.4,146.3,395.6z M104.4,623c-0.1-0.1-0.2-0.3-0.4-0.4c-0.1,0.1-0.4,0.2-0.4,0.4c0,0.1,0.2,0.4,0.3,0.4
		C104.1,623.4,104.3,623.1,104.4,623z M145.5,397.6c-0.1-0.1-0.2-0.3-0.4-0.4c-0.1,0.1-0.4,0.2-0.4,0.4c0,0.1,0.2,0.4,0.3,0.4
		C145.2,397.9,145.4,397.7,145.5,397.6z M152.6,398.8c-0.2-0.5-0.5-0.5-0.7,0c0,0.1,0.2,0.4,0.3,0.4
		C152.3,399.1,152.4,398.9,152.6,398.8z M102.8,637.5c0.1-0.1,0.3-0.2,0.4-0.4c-0.1-0.1-0.2-0.4-0.4-0.4c-0.1,0-0.4,0.2-0.4,0.3
		C102.5,637.2,102.7,637.3,102.8,637.5z M143.9,400.3c0.1-0.1,0.3-0.2,0.4-0.4c-0.1-0.1-0.2-0.4-0.4-0.4c-0.1,0-0.4,0.2-0.4,0.3
		C143.6,400,143.8,400.1,143.9,400.3z M98.1,652.7c0.1-0.1,0.3-0.2,0.4-0.4c-0.1-0.1-0.2-0.4-0.4-0.4c-0.1,0-0.4,0.2-0.4,0.3
		C97.8,652.4,98,652.6,98.1,652.7z M151,400.7c-0.5,0.2-0.5,0.5,0,0.7c0.1,0,0.4-0.2,0.4-0.3C151.3,401,151.1,400.8,151,400.7z
		 M143.2,402.3c-0.2-0.5-0.5-0.5-0.7,0c0,0.1,0.2,0.4,0.3,0.4C142.9,402.6,143,402.4,143.2,402.3z M75,674.7
		c-0.1-0.1-0.2-0.3-0.4-0.4c-0.1,0.1-0.4,0.2-0.4,0.4c0,0.1,0.2,0.4,0.3,0.4C74.8,675,74.9,674.8,75,674.7z M139.6,408.2
		c-0.2-0.5-0.5-0.5-0.7,0c0,0.1,0.2,0.4,0.3,0.4C139.4,408.5,139.5,408.3,139.6,408.2z"/>
	<path d="M7.2,782.1c-1.4,4.6-3.4,8.9-6,12.9c-2.3,0.2-0.7-1.6-1.2-2.3c2.2-0.9,2.2-3.3,3.3-5c1.2-1.9,1.7-4.2,3.6-5.7L7.2,782.1z"
		/>
	<path d="M205.7,421.6c0.5,0.4,1,0.7,1.4,1.1c0.4,0.4,2,0.1,1.1,1.3c-1.9,2.6-3.1,6.1-7.2,6l-0.2-0.3c1.8-1.4,1.6-3.7,2.3-5.6
		l0.4-0.3c1.9,0.5,2.5-0.2,2-2L205.7,421.6z"/>
	<path d="M214,413.3c0.2,0.1,0.4,0.1,0.5,0.2c0.6,0.5,1.9-0.4,2,0.9c0,0.2-0.4,0.6-0.7,0.8c-1.7,0.9-1.6-0.7-2.1-1.6L214,413.3z"/>
	<path d="M198.6,432.2c-0.8,0.8-1.6,1.6-2.4,2.4l-0.2-0.2c0.2-1.3,1-2.1,2.3-2.5C198.4,432,198.6,432.2,198.6,432.2z"/>
	<path d="M198.4,432c0.3-1.2,1.1-2,2.3-2.3l0.2,0.3c-0.8,0.8-1.5,1.5-2.3,2.3L198.4,432z"/>
	<path d="M210.4,418c0.4,0.4,1.5,0.1,1.4,1c0,0.3-0.4,0.7-0.7,0.7c-1,0-0.6-1-1-1.4L210.4,418z"/>
	<path d="M309.9,254.7c0.4-0.8,0.8-1.5,1.2-2.3l0.2,0.2c-0.3,0.8-0.3,1.8-1.2,2.3L309.9,254.7z"/>
	<path d="M163.2,496.7c0.4-0.8,0.8-1.6,1.2-2.4l0.2,0.2c-0.4,0.8-0.8,1.6-1.2,2.4L163.2,496.7z"/>
	<path d="M357.2,114.1c-0.4,0.8-0.4,1.7-1.2,2.2l-0.2-0.2c0.4-0.6,0.3-1.3,0-1.9l0.3-0.3l0.4,0.2l0.4-0.2L357.2,114.1z"/>
	<path d="M328.8,334.6c0.5-0.2,0.9-0.5,1.4-0.7c0.3,1.2-0.9,0.5-1.2,1C329,334.9,328.8,334.6,328.8,334.6z"/>
	<path d="M333.5,335.8c0.5-0.2,0.9-0.5,1.4-0.7c0.3,1.2-0.9,0.5-1.2,1L333.5,335.8z"/>
	<path d="M325.3,333.5c0.5-0.2,0.9-0.5,1.4-0.7c0.3,1.2-0.9,0.5-1.2,1C325.5,333.7,325.3,333.5,325.3,333.5z"/>
	<path d="M7,781.9c0.2-0.5,0.5-1,0.7-1.5c0.8,0.8,0,1.2-0.4,1.7C7.2,782.1,7,781.9,7,781.9z"/>
	<path d="M406.3,10.6c0.4-0.4,0.8-0.8,1.2-1.2c0,0,0.2,0.2,0.2,0.2c-0.3,0.3-0.2,0.6,0,0.9l-0.3,0.3c-0.3-0.3-0.5-0.3-0.8,0
		C406.5,10.8,406.3,10.6,406.3,10.6z"/>
	<path d="M393.3,22.4c0.4-0.6,0.9-0.8,1.3,0l-0.2,0.2c-0.3-0.3-0.6-0.3-0.9,0L393.3,22.4z"/>
	<path d="M392.2,23.5c0.4-0.4,0.7-0.8,1.1-1.1c0,0,0.2,0.2,0.2,0.2c-0.3,0.3-0.2,0.6,0,0.9l-0.3,0.3c-0.3-0.3-0.5-0.3-0.8,0
		C392.5,23.7,392.2,23.5,392.2,23.5z"/>
	<path d="M196.3,434.7c-0.2,0.2-0.5,0.3-0.7,0.5c0.2-0.2,0.3-0.4,0.5-0.7L196.3,434.7z"/>
	<path d="M94.1,464c-0.2,0.2-0.5,0.3-0.7,0.5c0.2-0.2,0.3-0.4,0.5-0.7L94.1,464z"/>
	<path d="M311.2,252.4c0.2-0.2,0.5-0.3,0.7-0.5c-0.2,0.2-0.3,0.4-0.5,0.7L311.2,252.4z"/>
	<path d="M164.4,494.3c0.2-0.2,0.5-0.3,0.7-0.5c-0.2,0.2-0.3,0.4-0.5,0.7L164.4,494.3z"/>
	<path d="M309,260.7c0.2,0.2,0.3,0.5,0.5,0.7c-0.2-0.2-0.4-0.3-0.7-0.5L309,260.7z"/>
	<path d="M162,497.8c0.4-0.4,0.8-0.7,1.1-1.1l0.2,0.2c-0.4,0.4-0.8,0.7-1.1,1.1C162.3,498,162,497.8,162,497.8z"/>
	<path d="M407.5,9.4c0.4-0.6,0.9-0.6,1.3,0l-0.2,0.2c-0.3-0.3-0.6-0.3-0.9,0L407.5,9.4z"/>
	<path d="M211.6,554.2c0.7,0.5,0.6,0.9,0,1.4l-0.2-0.2c0.2-0.3,0.2-0.6,0-0.9L211.6,554.2z"/>
	<path d="M211.5,555.6c-0.4,0.4-0.8,0.8-1.2,1.2l-0.2-0.2c0.4-0.4,0.8-0.8,1.1-1.2C211.4,555.4,211.5,555.6,211.5,555.6z"/>
	<path d="M210.4,556.8c-0.4,0.4-0.8,0.7-1.2,1.1l-0.2-0.2c0.4-0.4,0.8-0.8,1.2-1.1L210.4,556.8z"/>
	<path d="M380.6,381.6c0.8,0.5,0.6,0.9,0,1.4l-0.2-0.2c0.3-0.3,0.2-0.6,0-0.9L380.6,381.6z"/>
	<path d="M380.6,383c-0.4,0.4-0.8,0.7-1.2,1.1l-0.2-0.2c0.3-0.3,0.3-0.5,0-0.8l0.3-0.3l0.4,0.2l0.4-0.2L380.6,383z"/>
	<path d="M185.7,581.2c0.8,0.5,0.6,0.9,0,1.4l-0.2-0.2c0.3-0.3,0.2-0.6,0-0.9L185.7,581.2z"/>
	<path d="M185.7,582.6c-0.4,0.4-0.8,0.8-1.2,1.2c0,0-0.2-0.2-0.2-0.2c0.3-0.3,0.2-0.6,0-0.9l0.3-0.3l0.4,0.2l0.4-0.2
		C185.5,582.4,185.7,582.6,185.7,582.6z"/>
	<path d="M184.5,583.8c-0.4,0.4-0.8,0.8-1.2,1.2c0,0-0.2-0.2-0.2-0.2c0.3-0.3,0.2-0.6,0-0.9l0.3-0.3l0.4,0.2l0.4-0.2
		C184.3,583.5,184.5,583.8,184.5,583.8z"/>
	<path d="M183.4,585c-0.4,0.4-0.8,0.8-1.2,1.2c0,0-0.2-0.2-0.2-0.2c0.2-0.3,0.2-0.6,0-0.9l0.3-0.3l0.4,0.2l0.4-0.2
		C183.1,584.7,183.4,585,183.4,585z"/>
	<path d="M182.2,586.1c-0.4,0.4-0.8,0.8-1.2,1.2c0,0-0.2-0.2-0.2-0.2c0.4-0.4,0.8-0.8,1.1-1.2C182,585.9,182.2,586.1,182.2,586.1z"
		/>
	<path d="M181,587.3c-0.4,0.4-0.8,0.8-1.2,1.2c0,0-0.2-0.2-0.2-0.2c0.4-0.4,0.8-0.8,1.2-1.2C180.9,587.1,181,587.3,181,587.3z"/>
	<path d="M179.9,588.5c-0.4,0.4-0.8,0.8-1.2,1.2c0,0-0.2-0.2-0.2-0.2c0.4-0.4,0.8-0.8,1.2-1.2C179.7,588.3,179.9,588.5,179.9,588.5z
		"/>
	<path d="M178.7,589.7c-0.4,0.4-0.8,0.7-1.2,1.1c0,0-0.2-0.2-0.2-0.2c0.4-0.4,0.8-0.8,1.2-1.1L178.7,589.7z"/>
	<path d="M367.5,399.2c0.2-0.2,0.5-0.3,0.7-0.5c-0.2,0.2-0.3,0.5-0.5,0.7C367.7,399.4,367.5,399.2,367.5,399.2z"/>
	<path d="M366.3,400.4c0.4-0.4,0.8-0.7,1.1-1.1l0.2,0.2c-0.4,0.4-0.8,0.7-1.1,1.1L366.3,400.4z"/>
	<path d="M26,758.7c-0.4,0.4-0.8,0.8-1.2,1.2c0,0-0.2-0.2-0.2-0.2c0.4-0.4,0.8-0.8,1.2-1.2C25.8,758.5,26,758.7,26,758.7z"/>
	<path d="M24.9,759.9c-0.4,0.4-0.8,0.8-1.2,1.2c0,0-0.2-0.2-0.2-0.2c0.3-0.3,0.2-0.6,0-0.9l0.3-0.3l0.5,0.2l0.5-0.2
		C24.7,759.7,24.9,759.9,24.9,759.9z"/>
	<path d="M23.7,761.1c-0.4,0.6-0.9,0.6-1.3,0l0.2-0.2L23,761l0.4-0.2L23.7,761.1z"/>
	<path d="M16.4,771.5c0.2-0.2,0.5-0.3,0.7-0.5c-0.2,0.2-0.3,0.5-0.5,0.7C16.6,771.7,16.4,771.5,16.4,771.5z"/>
	<path d="M13.1,771.7c-0.2,0.2-0.5,0.3-0.7,0.5c0.2-0.2,0.3-0.4,0.5-0.7C12.9,771.5,13.1,771.7,13.1,771.7z"/>
	<path d="M16.6,771.7c-0.2,0.2-0.5,0.3-0.7,0.5c0.2-0.2,0.3-0.4,0.5-0.7C16.4,771.5,16.6,771.7,16.6,771.7z"/>
	<path d="M11.7,777.3c0.2-0.2,0.5-0.3,0.7-0.5c-0.2,0.2-0.3,0.5-0.5,0.7C11.9,777.5,11.7,777.3,11.7,777.3z"/>
	<path d="M11.9,777.5c-0.2,0.2-0.5,0.3-0.7,0.5c0.2-0.2,0.3-0.4,0.5-0.7C11.7,777.3,11.9,777.5,11.9,777.5z"/>
	<path d="M280.4,289.3c0.7,1.9-1.1,3.3-0.9,5c0,0.5,0.3,1.2,0.7,1.5c0.4,0.2,1.2,0,1.5-0.4c3.3-3.7,4.7-8.3,7-12.6
		c0.6-1.1-0.1-1.6-0.9-2.4c-1-0.9-0.8-1.3,1-1.3c0.9,0,1.3-0.2,1.7-1c0.3-0.6,0.8-1.7,1.5-1.3c0.7,0.5-0.3,1.3-0.5,2
		c-0.6,1.6-2.1,3-0.6,4.8c0.2,0.2,0,1-0.1,1c-3.4,1.2-3.2,4.6-4.5,7.1c-3.3,6.7-6.6,13.4-8.4,20.8c-1.2,4.7-4.7,8.7-8.8,11.7
		c-0.4,0.3-1.2,0.6-1.5,0.4c-0.4-0.2-0.6-1-0.6-1.5c-0.2-2,0.7-4,1.6-5.5c2-3.1,2.5-6.4,3.2-9.8c0.9-0.5,1-1.4,1.2-2.3
		c1.5-1.7,2.2-3.7,2.3-5.9c0.9-0.5,1-1.4,1.2-2.3c0.9-0.6,1-1.5,1.1-2.4c0.7-0.7,1.5-1.6,0.4-2.2c-0.6-0.3-0.8,0.9-1,1.6
		c-0.9,0.6-1,1.5-1.1,2.4c-0.9,0.5-1,1.4-1.2,2.3c-1.5,1.7-2.2,3.7-2.3,5.9c-0.9,0.5-1,1.4-1.2,2.3c-3,6.3-6.3,12.6-8,19.4
		c-0.5,1.9-1.6,1.9-2.9,1.7c-1.7-0.2-1.6-1.5-1.1-2.6c0.6-1.3,0.9-2.5,1-3.9c0.7-0.7,1.5-1.6,0.4-2.2c-0.6-0.3-0.8,0.9-1,1.6
		c-0.7,0.4-1.3,0.9-2,1.2c-0.3,0.1-0.8,0.1-1.1,0c-1-0.4-0.2-0.8,0-1.2c1.7-2.8,2.9-5.9,3.8-9c2-7.1,4.9-13.8,8.3-20.3
		c1-1.9,2.3-3.6,1.2-5.8c3.5,0.1,0.8-2.1,1.3-3.2c0.6-1.5,2.8-1.8,3.3-3.7c0.2-0.9,0.8-1.8,1.4-2.6c0.2-0.2,0.6-0.3,1-0.4
		c0,0.3,0,0.7-0.1,1c-2,4.8-3.9,9.7-6.1,14.4c-2.2,4.9-3.2,10.4-5.7,15.2c-0.6,1.1-0.4,2.7-0.4,4c0,0.9-0.2,2.1,1.1,2.4
		c1.4,0.3,1.6-0.9,1.6-1.8c-0.2-2.3,2.4-2.9,2.9-4.7c0.4-1.7,1.2-3.2,1.7-4.9c2.4-8,6-15.4,9.4-22.9c0.7-1.4,1.5-1.6,2.6-1.6
		c1.4,0.1,2.2,1.3,1.5,2.4c-0.6,1-1.3,1.9-2,2.8c-1.4,1.8-2,3.7-2,5.9c-0.3-0.4-0.7-0.9-1.1-0.5C279.5,288.6,280,289,280.4,289.3z
		 M279.4,290.7c-0.2-0.5-0.5-0.5-0.7,0c0,0.1,0.2,0.4,0.3,0.4C279.1,291.1,279.2,290.9,279.4,290.7z"/>
	<path d="M362.8,372.5c-2.4,0.5-2.5,2.7-3.2,4.4l-0.3,0.3c-2.7,0.9-4,3.5-6,5.2c-1,0.9-0.6,1.7,0.2,2.4c0.5,0.6,1.3,1.3,0.8,2
		c-0.9,1.1-1.7,0-2.4-0.6c-0.6-0.5-1.2-0.9-2-0.4c-1.5,1.1-3.6,2-4.6,3.5c-2.5,3.8-5.8,6.7-8.9,9.9c-1.1,1.1-1.6,2-0.8,3.5
		c0.4,0.8-0.6,1.9-1.1,1.8c-2.4-0.4-3.6,0.8-4.4,2.7c-5.1,0.4-7.6,4.9-11.3,7.4c-1.3,0.8-2.2,2.2-3.8,2.5l-0.2-0.2
		c0.8-1.3,3.1-2,1.7-4.3c-0.3-0.5,0.3-1.3,0.9-1c2.5,1.2,3.4-0.9,4.7-2.1c4.3-4.2,8.6-8.5,12.8-12.8c1.7-1.8,4-3.2,3.8-6.2
		c-0.1-0.6,0.4-1.1,0.9-1.3c5.5-2.5,9.1-7.6,14.2-10.7c1.5-0.9,0.5-3.3,2.6-3.5c1.7-0.2,2.7-1.2,3.5-2.7c0.6-1.3,2.1-0.7,3.1-1.2
		l0.2,0.2c-0.2,0.3-0.2,0.6,0,0.9L362.8,372.5z"/>
	<path d="M242.3,321.2c-0.4-0.1-1.2-0.7-1.4,0.2c-0.8,3.2-2,3.5-4.1,0.9c-0.3-0.4-1.7,0.4-2.7,0.4c-1,0.1-1.4-0.8-1.3-1.5
		c0.2-1.3,0.8-2.6,1.1-3.9c0.2-0.9,0-2,1.4-2.2c1.3-0.1,1.6,0.6,1.9,1.7c0.3,1.4,1,1.6,1.4,0c0.5-1.8,1-3.5,3.5-2.5
		c1.2,0.5,1.1-0.7,1.2-1.4c1.2-4.8,4.7-8.8,5.1-14c0.1-0.9,0.9-1.7,1.5-2.5c0.5-0.7,2.3-0.1,2.3,0.8c0.1,0.9,0.1,2-0.2,2.9
		c-0.9,2.7-1.7,5.5-3,8.1c-1.7,3.5-2.3,7.4-3.5,11C244.9,321.1,244.4,322.1,242.3,321.2z"/>
	<path d="M251.7,315.6c1.3-1.4,0.4-4.2,1.5-4.6c2.7-1-0.2-3.3,1.4-4.2c0.3,0.4,0.7,0.9,1.1,0.5c0.4-0.4-0.1-0.8-0.5-1.1
		c1.2-4.2,2.3-8.4,3.5-12.6c0.4-1.2,1.4-2.4,0.4-3.8c-0.5-0.7-0.6-1.5,0.6-1.6c0.8-0.1,1.4,0.6,1.7,1.3c0.9,2.2,0,4.3-0.8,6.3
		c-1.4,3.6-2.7,7.2-3.7,10.9c-1.1,4.4-2.8,8.7-4.3,13.1c-0.6,2-2.2,3.2-3.6,4.5l-0.2-0.2c0.7-2.6,1.4-5.2,2.2-7.8
		c0.3,0.4,0.7,0.9,1.1,0.5C252.6,316.3,252.1,315.9,251.7,315.6z"/>
	<path d="M174,563.8c-0.5,1.4,0.3,2,1.4,2.8c0.9,0.6,0.9,1.8,0,2.5c-0.6,0.5-1.5,0.5-2.1-0.2c-0.6-0.6-0.8-2-2.1-0.9
		c-0.7,0.6-0.4,1.3-0.3,2c0.4,2.5,0.3,2.6-2.5,2.4c-0.8,0-1.3-0.2-1.8,0.7c-1.4,2.8-4.6,4.2-5.9,7.1c-0.5,1.1-1.3-0.5-2,0l-0.2-0.2
		c5-5.5,9.5-11.6,15.3-16.5L174,563.8z"/>
	<path d="M293.9,253.4c-0.3-0.2-0.8-0.3-0.9-0.6c-0.2-0.5-0.3-1.4-0.1-1.6c1.9-1.5,3.9-2.9,5.9-4.2c0.3-0.2,1,0.3,1.4,0.6
		c0.2,0.2,0.3,0.8,0.2,1.1C299.6,250.9,296,253.5,293.9,253.4z"/>
	<path d="M359.5,376.9c3,0.9,3.2,1,1.7,3.2c-0.8,1.3-0.7,2.6-1.1,3.9c-0.2,0.9-0.9,1.1-1.8,1c-1-0.2-1.1-0.9-1.2-1.7
		c0-1,0-1.9,1-2.5c1.6-0.8,1.4-2.2,0.9-3.5L359.5,376.9z"/>
	<path d="M134,597.6c1.4,0.4,2.2,0,2.5-1.5c0.2-1,0.5-2,1.8-1.2c1.1,0.7,1.6,1.8,1.1,3c-0.3,0.6-1.1,1-1.7,1.5
		c-2.5,2.5-2.7,2.4-3.9-1.5L134,597.6z"/>
	<path d="M366.5,369.9c0.5,0.1,1.1,0.2,1.6,0.3c1.5,0.2,1.9,1,0.8,2.2c-0.9,1.1-2.8,1.3-3,3.1c-2.9,1-2.8-1.3-3.2-3l0.3-0.3
		c1.9,0.5,2.9-0.2,3.2-2.1L366.5,369.9z"/>
	<path d="M343.7,359.6c-0.3,0.2-0.6,0.6-0.9,0.6c-2.1,0-4.5-3-4.3-5.1c0.1-0.7,0.4-1.1,1-1.2c0.8-0.2,1.7,0,1.9,0.8
		c0.3,1.7,0.3,3.5,2.3,4.4C343.7,359.1,343.7,359.4,343.7,359.6z"/>
	<path d="M300.5,214.6c-0.2,0.3-0.4,1-0.9,1.2c-2.3,0.7-5.1-1.9-4.5-4.2c0.1-0.3,0.4-0.7,0.7-0.8
		C296.7,210.5,300.3,213.4,300.5,214.6z"/>
	<path d="M255.4,448.9c-0.2,0.1-0.7,0.4-1.3,0.5c-0.9,0.1-1.4-0.4-1.4-1.3c0-0.8,0.3-1.5,1.3-1.5c1.3,0,2.7,0,4,0
		c1,0,1.2,0.8,1.2,1.6c0,0.9-0.6,1.4-1.4,1.4C257.2,449.5,256.4,449.2,255.4,448.9z"/>
	<path d="M228,510.9c0.3,1.8,2.7,1.4,3,3.1c0.1,0.7,0.4,1.6-0.4,2.1c-0.4,0.3-1.1,0.3-1.6,0.3c-1.4-0.1-1.8-2-3.4-1.9l-0.3-0.2
		c0.3-1.5,1.2-2.7,2.4-3.6L228,510.9z"/>
	<path d="M285,460.6c0.2,0,0.7,0,1.3,0.1c0.6,0.1,1.2,0.3,1,1.1c-0.1,0.3-0.3,0.7-0.5,1c-0.8,1-2,1-3.2,0.9c-1.1,0-2.5,0.2-2.6-1.5
		c-0.1-1.7,1.3-1.6,2.4-1.6C283.8,460.6,284.2,460.6,285,460.6z"/>
	<path d="M174.8,394.4c-1.4-0.1-1.9-0.7-1.9-1.5c0-1.8,1.8-1.8,2.8-2.5c0.6-0.4,1.5-0.4,2.1,0.2c0.6,0.7,0.6,1.6,0,2.1
		C176.9,393.5,175.6,394,174.8,394.4z"/>
	<path d="M234.7,346.7c-0.1,1.1-0.3,1.8-1.3,1.8c-0.6,0-1.2-0.1-1.6-0.4c-1-0.7-2.8-0.8-2.3-2.7c0.1-0.6,0.5-1.1,1.2-1
		C232.4,344.7,234,345.1,234.7,346.7z"/>
	<path d="M113,628.1c1,0.5,1.8,0,2.7-0.4c1.1-0.5,2.3-0.8,2.7,0.8c0.3,1.1-0.4,1.6-1.3,2.1c-3.1,1.7-3.2,1.7-4.4-2.2L113,628.1z"/>
	<path d="M332.2,413.8c-0.1,2.6-0.5,3.2-2.6,2.9c-0.5-0.1-1.2-0.3-1.5-0.7c-0.4-0.6-0.5-1.5,0.3-2.1c0.8-0.6,1.5-1.1,2-2
		c0.5-0.9,1.3-0.6,1.6,0.3C332.2,412.8,332.2,413.4,332.2,413.8z"/>
	<path d="M300.3,244.3c-0.8-0.2-1.6-0.2-2.3-0.5c-0.6-0.3-0.6-0.9-0.5-1.5c0.2-1.3,1.3-1.2,2.2-1.2c1.1,0,2.4-0.5,2.9,1
		c0.1,0.4,0,1.3-0.3,1.5C301.8,244,300.9,244.1,300.3,244.3z"/>
	<path d="M243.3,455.8c-0.1,0.9-0.3,1.9-0.4,2.8c-0.1,1.2-0.9,1.6-1.9,1.5c-0.9,0-2,0.1-2.2-1.2c-0.2-1.1,0.2-2,1-2.4
		c1-0.5,2.1-0.7,3.2-1L243.3,455.8z"/>
	<path d="M291.9,191.7c0.9-0.1,1.9,1.2,1.4,1.9c-0.9,1.4-2.4,2.4-2.7,4.2c0,0.1-0.6,0.1-1,0.1c-0.1,0-0.3-0.3-0.3-0.4
		c-0.2-2,1-3.6,1.6-5.4C291,191.9,291.5,191.9,291.9,191.7z"/>
	<path d="M239.9,292.2c-1.2-0.2-2.3-0.9-2.1-2.2c0.1-1.3,1.2-2,2.5-1.9c1.7,0,1.6,1.4,1.5,2.5C241.7,291.6,241.2,292.4,239.9,292.2z
		"/>
	<path d="M355.1,366.8c0.4-0.4,0.7-0.7,1.1-1.1c1.3-0.2,2.9-0.7,2.9,1.5c0,1.5-1,2.5-2.5,2.5C354.4,369.7,354.9,368.1,355.1,366.8z"
		/>
	<path d="M238.3,509.6c-0.2-1.5-1.1-1.3-2.1-1c0,0-0.3-0.3-0.3-0.3c0.1-0.2,0.1-0.4,0.2-0.5c0.6-1.2-0.7-3.3,1.5-3.7
		c2.4-0.5,1.3,2.2,2.5,2.9c0.1,0.1,0.4,0.1,0.5,0.1l0.3,0.2c-0.2,0.3-0.2,0.7,0,1l-0.3,0.3c-0.7-0.2-1,0.1-0.8,0.8l-0.3,0.3
		l-0.5-0.2l-0.5,0.2L238.3,509.6z"/>
	<path d="M370.3,364.6c0.9,0.7,1.7,1.9,1.2,2.8c-1,1.8-2.9,1.3-4.6,1C366.4,365.6,369.2,365.9,370.3,364.6z"/>
	<path d="M249.7,496c-0.1,0.1-0.3,0.4-0.4,0.4c-1.6-0.6-3.4-0.5-4.6-1.9c-0.2-0.3,0-1.1,0.2-1.6c0.3-0.6,1.1-0.7,1.5-0.4
		c1.2,0.9,2.2,1.9,3.3,3C249.8,495.5,249.7,495.8,249.7,496z"/>
	<path d="M342.2,382.6c-1.6-0.2-1.4-1.5-1.3-2.6c0-1.1,0.7-1.7,1.9-1.5c1.3,0.2,1.2,1.3,1.2,2.2C344,381.8,343.5,382.6,342.2,382.6z
		"/>
	<path d="M174.7,376.8c-0.4,0-1.5,0.1-1.7-1.2c-0.2-1.7,1-1.8,2.2-1.8c1.1,0,1.9,0.3,1.9,1.5C177.1,376.4,176.3,376.8,174.7,376.8z"
		/>
	<path d="M267.4,437.8c-0.4,0-1.5,0.1-1.7-1.2c-0.2-1.7,1-1.8,2.2-1.8c1.1,0,1.9,0.3,1.9,1.5C269.9,437.5,269,437.9,267.4,437.8z"/>
	<path d="M300.5,205.7c-0.7-0.1-1.5-0.3-2.2-0.3c-0.9-0.1-2-0.1-2-1.4c0-0.5,0.3-1.3,0.6-1.4c1.2-0.4,2.6-0.9,3.4,0.7
		c0.3,0.6,0.4,1.4,0.5,2.2L300.5,205.7z"/>
	<path d="M235.9,298.2c-0.1,0.9,0.1,2-1.2,2.2c-1.7,0.2-1.8-0.9-1.8-2.2c0-1,0.3-1.9,1.5-2C235.5,296.3,235.9,297.1,235.9,298.2z"/>
	<path d="M143.1,584.5c0.1,1.6-0.3,2.4-1.5,2.4c-1.7,0-1.6-1.4-1.5-2.5c0-1.1,0.6-1.8,1.8-1.6C143.2,583,143,584.1,143.1,584.5z"/>
	<path d="M350.8,374.8c-0.1,0.3-0.3,0.7-0.4,1c-0.6,1.2-1.1,2.6-2.9,1.9c-0.4-0.2-0.7-1-0.6-1.4c0.1-1,2.6-2.7,3.4-2.3
		C350.5,374,350.6,374.5,350.8,374.8z"/>
	<path d="M297.4,189.7c0.1-0.9,0.5-1.4,1.4-1.5c1.3-0.1,2.3,0.6,2.6,1.8c0.3,1-0.7,1.2-1.5,1.2C298.8,191.3,297.5,191.4,297.4,189.7
		z"/>
	<path d="M366.9,376.2c2.7,0.7,2.8,0.7,2.7,3.9C366.5,380.1,366.5,380.1,366.9,376.2z"/>
	<path d="M299.7,228c0.6,2.8,0.3,3.4-1.6,3.2c-0.8-0.1-1.5-0.2-1.7-1.1c-0.2-1.1,0.2-1.8,1.4-2c0.6-0.1,1.1-0.2,1.7-0.4L299.7,228z"
		/>
	<path d="M190.7,379.8c1.1,0.2,2.1,2,1.6,3.2c-0.2,0.4-0.9,0.8-1.3,0.8c-1.3,0.1-1.9-1.2-1.5-3C189.6,380.1,189.9,379.7,190.7,379.8
		z"/>
	<path d="M282.3,470.6c-0.7,0-1.4-0.4-1.1-1c0.5-1.1,0.4-2.9,2.1-2.8c1.1,0.1,0.8,1.5,0.8,2.3C284,470.2,283.3,470.8,282.3,470.6z"
		/>
	<path d="M236,519.2c-4-1.2-4.1-1.5-1.1-5l0.2,0.2c0.4,1.5,0.8,3,1.2,4.5C236.3,518.9,236,519.2,236,519.2z"/>
	<path d="M248.9,506.3c-1.8-0.1-2-2.2-3.5-2.8c-0.6-0.2-0.8-0.9-0.5-1.3c0.4-0.5,0.9-0.2,1.5-0.1c2,0.6,2.5,2.2,2.7,3.9L248.9,506.3
		z"/>
	<path d="M174.2,371.9c-1.3,0-1.3-0.9-1.2-1.6c0-0.8-0.4-2.2,1.1-2.2c1,0,1.7,0.8,1.8,1.8C175.9,371.1,174.9,371.5,174.2,371.9z"/>
	<path d="M252.5,491.6c-0.3-0.2-0.7-0.4-0.7-0.7c-0.4-1.7,0.8-2.8,1.5-4.1c0.1-0.1,0.7,0,1,0c0.1,0,0.3,0.3,0.2,0.4
		c-0.5,1.4-1,2.8-1.5,4.2C252.9,491.6,252.7,491.6,252.5,491.6z"/>
	<path d="M224.5,315.7c-0.1,0-0.8-0.1-1-1.1c-0.1-0.8,0-1.6,1-1.8c1.1-0.2,1.9,0.1,2,1.4C226.5,314.9,226.1,315.6,224.5,315.7z"/>
	<path d="M119.7,639c-1.1-0.7-3.4,0.3-3.1-2.3c0.1-0.6,0.5-1,1.1-1.1c2.5-0.3,1.6,2,2.3,3.1L119.7,639z"/>
	<path d="M123.1,625c0.2,0,0.9,0.1,1.1,1.1c0.2,0.8,0,1.6-0.9,1.8c-1,0.3-1.9,0-2-1.3C121.3,625.8,121.5,625.1,123.1,625z"/>
	<path d="M201.8,539c0,0.1-0.1,0.8-1.1,0.9c-0.8,0.1-1.6,0-1.8-1c-0.2-1.1,0.1-1.9,1.4-2C201,536.9,201.7,537.3,201.8,539z"/>
	<path d="M298.9,182.4c0.8,0.1,1.5,0.4,1.5,1.3c0.1,1.2-0.5,1.7-1.7,1.7c-1-0.1-1.2-0.8-1.2-1.6C297.4,182.8,298,182.4,298.9,182.4z
		"/>
	<path d="M286.4,190.2c1.1-2.8,3-4.8,5.9-5.8l0.2,0.2c-2,2-3.9,3.9-5.9,5.9L286.4,190.2z"/>
	<path d="M146.4,590.4c-0.8,0-1.5-0.2-1.6-1.2c-0.1-0.8,0.1-1.5,1-1.7c1.1-0.2,1.9,0.2,1.9,1.4C147.8,589.8,147.4,590.4,146.4,590.4
		z"/>
	<path d="M267.6,465.3c0.2,0,0.9,0.1,1.1,1.1c0.2,0.8,0,1.6-0.9,1.8c-1,0.3-1.9,0-2-1.3C265.7,466.2,266,465.4,267.6,465.3z"/>
	<path d="M231.1,465.4c1,0.1,1.3,0.8,1.2,1.6c-0.1,1.2-0.9,1.6-2,1.3c-0.9-0.2-1-1-0.9-1.8C229.5,465.4,230.3,465.4,231.1,465.4z"/>
	<path d="M232,304.5c0.8,0.1,1.5,0.4,1.5,1.3c0.1,1.2-0.5,1.7-1.7,1.7c-1-0.1-1.2-0.8-1.2-1.6C230.5,305,231.1,304.5,232,304.5z"/>
	<path d="M243,455.5c0.7-1.1-0.3-3.4,2.3-3.1c0.6,0.1,1,0.5,1.1,1.1c0.3,2.5-2,1.6-3.1,2.3L243,455.5z"/>
	<path d="M293.4,224.1c0,0.2-0.1,0.9-1.1,1.1c-0.8,0.2-1.6,0-1.8-0.9c-0.3-1,0-1.9,1.3-2C292.6,222.3,293.3,222.5,293.4,224.1z"/>
	<path d="M186.4,561c-0.4,0.4-0.7,0.8-1.1,1.2c-0.5,0.3-1.1,0.7-1.6,1c-0.5-1.9,1.6-2.4,2.1-3.9c0.3-0.9,1-2.3,1.6-1.9
		c1,0.6-0.5,1.6-0.6,2.4C186.6,560.3,186.5,560.6,186.4,561z"/>
	<path d="M183.1,554.2c0.7-1.1-0.3-3.4,2.3-3.1c0.6,0.1,1,0.5,1.1,1.1c0.3,2.6-2,1.6-3.1,2.3L183.1,554.2z"/>
	<path d="M212.3,534.6c1,0.1,1.3,0.8,1.2,1.6c-0.1,1.2-0.9,1.6-2,1.3c-0.9-0.2-1-1-0.9-1.8C210.7,534.7,211.5,534.6,212.3,534.6z"/>
	<path d="M225.3,324.8c-0.1,0.9-0.6,1.4-1.5,1.4c-1.2,0-1.7-0.7-1.5-1.9c0.2-1,0.9-1.1,1.7-1.1C225,323.3,225.2,324.1,225.3,324.8z"
		/>
	<path d="M183.4,381.4c-0.1,0-0.8-0.1-1-1.1c-0.1-0.8,0-1.6,1-1.8c1.1-0.2,1.9,0.1,2,1.4C185.4,380.7,185.1,381.4,183.4,381.4z"/>
	<path d="M178.3,528.9c0,0.8-0.2,1.5-1.2,1.6c-0.8,0.1-1.5-0.1-1.7-1c-0.2-1.1,0.2-1.9,1.4-1.9C177.6,527.6,178.3,528,178.3,528.9z"
		/>
	<path d="M286.3,267.7c0,0.1-0.1,0.8-1.1,0.9c-0.8,0.1-1.6,0-1.8-1c-0.2-1.1,0.1-1.9,1.4-2C285.6,265.7,286.3,266,286.3,267.7z"/>
	<path d="M172.1,521.7c0.8,0.1,1.5,0.4,1.5,1.3c0.1,1.2-0.5,1.7-1.7,1.7c-1-0.1-1.2-0.8-1.2-1.6
		C170.6,522.2,171.2,521.8,172.1,521.7z"/>
	<path d="M282.8,433.8c0,0.8-0.2,1.5-1.2,1.6c-0.8,0.1-1.5-0.1-1.7-1c-0.2-1.1,0.2-1.9,1.4-1.9C282.1,432.5,282.8,432.9,282.8,433.8
		z"/>
	<path d="M265.2,428.2c-0.1,0.9-0.6,1.4-1.5,1.4c-1.2,0-1.7-0.7-1.5-1.9c0.2-1,0.9-1.1,1.7-1.1C264.9,426.7,265.1,427.4,265.2,428.2
		z"/>
	<path d="M236.3,508.7c-0.7,1.1,0.3,3.4-2.3,3.1c-0.6-0.1-1-0.5-1.1-1.1c-0.3-2.5,2-1.6,3.1-2.3L236.3,508.7z"/>
	<path d="M174,384.9c-0.1,0-0.8-0.1-1-1.1c-0.1-0.8,0-1.6,1-1.8c1.1-0.2,1.9,0.1,2,1.4C176,384.2,175.7,384.9,174,384.9z"/>
	<path d="M275.9,428.5c0.7-1.1-0.3-3.4,2.3-3.1c0.6,0.1,1,0.5,1.1,1.1c0.3,2.5-2,1.6-3.1,2.3L275.9,428.5z"/>
	<path d="M322.7,424.4c0,0.8-0.2,1.5-1.2,1.6c-0.8,0.1-1.5-0.1-1.7-1c-0.2-1.1,0.2-1.9,1.4-1.9C322.1,423.1,322.7,423.5,322.7,424.4
		z"/>
	<path d="M217.9,337.3c0.8,0.1,1.5,0.4,1.5,1.3c0.1,1.2-0.5,1.7-1.7,1.7c-1-0.1-1.2-0.8-1.2-1.6C216.4,337.8,217,337.4,217.9,337.3z
		"/>
	<path d="M276.9,470.9c0,0.1-0.1,0.8-1.1,0.9c-0.8,0.1-1.6,0-1.8-1c-0.2-1.1,0.1-1.9,1.4-2C276.2,468.8,276.9,469.2,276.9,470.9z"/>
	<path d="M174.9,406.5c-1.1-0.7-3.4,0.3-3.1-2.3c0.1-0.6,0.5-1,1.1-1.1c2.5-0.3,1.6,2,2.3,3.1L174.9,406.5z"/>
	<path d="M240.9,508.4c2.2,0.2,1.9,2.1,2.4,3.5l-0.3,0.3c-1.3-0.5-3.4,0-3.5-2.4l0.3-0.3c0.7,0.2,1-0.1,0.8-0.8L240.9,508.4z"/>
	<path d="M158.5,592c-1.9-0.4-2.2-1.7-1.9-3.4c0.1-0.6,0.3-1.2,1-0.9c0.3,0.1,0.6,0.4,0.7,0.7c0.2,1.1,0.3,2.2,0.5,3.3L158.5,592z"
		/>
	<path d="M199.4,395c0.4,0.2,0.9,0.3,0.9,0.5c0.1,0.3-0.1,0.8-0.3,1c-0.8,0.5-1.7,0.9-2.5,1.2c-0.2,0.1-0.8-0.2-0.9-0.5
		c-0.1-0.3,0.1-0.8,0.3-1C197.8,395.8,198.6,395.4,199.4,395z"/>
	<path d="M314.9,433.5c0.1,0.4,0.1,0.7,0.2,1.1c0.5,1.3-0.5,1.6-1.3,1.9c-0.2,0.1-0.8-0.2-0.9-0.4c-0.3-0.7-0.4-1.5,0.2-2.1
		c0.4-0.4,1-0.5,1.5-0.7C314.6,433.2,314.9,433.5,314.9,433.5z"/>
	<path d="M223.2,351.9c-1-0.2-1-1-0.9-1.7c0.1-0.6,0.4-1.1,1.1-1c0.8,0.2,1.5,0.7,1.5,1.4C224.8,351.3,224.1,351.9,223.2,351.9z"/>
	<path d="M348.9,368.9c-0.9,1.3-2,2-3.5,2.4l-0.2-0.2c0.1-0.2,0.1-0.3,0.2-0.5c0.6-2.7,0.6-2.7,3.3-2L348.9,368.9z"/>
	<path d="M168.1,528.9c0.8,0.1,1.6,0.6,1.6,1.3c0,0.7-0.7,1.2-1.5,1.4c-0.7,0.1-1-0.5-1.1-1C167.1,529.8,167,529,168.1,528.9z"/>
	<path d="M251.4,280.3c-1-0.2-1-1-0.9-1.7c0.1-0.6,0.4-1.1,1.1-1c0.8,0.2,1.5,0.7,1.5,1.4C253,279.7,252.3,280.2,251.4,280.3z"/>
	<path d="M307.9,424.1c-0.3,2.1-2.5,2.3-3.6,3.6l-0.2-0.2c0-2.4,1.2-3.6,3.6-3.6L307.9,424.1z"/>
	<path d="M347.8,397.7c-0.8,0.1-1-0.4-1-1c0-0.5,0.1-1.2,0.5-1.5c0.5-0.3,1.1,0,1.2,0.7C348.7,396.6,348.6,397.3,347.8,397.7z"/>
	<path d="M340.7,375.9c-1.4,1.5-2.6,3.2-4.8,3.6l-0.2-0.2c1.4-1.5,2.6-3.2,4.8-3.6L340.7,375.9z"/>
	<path d="M226.4,319c0,0.7-0.3,1.2-1,1.1c-0.7-0.1-0.9-0.7-0.8-1.2c0.1-0.5,0.4-1.2,0.7-1.3C226.5,317.4,226.3,318.4,226.4,319z"/>
	<path d="M349.7,361.3c0,0.7-0.3,1.2-1,1.1c-0.7-0.1-0.9-0.7-0.8-1.2c0.1-0.5,0.4-1.2,0.7-1.3C349.8,359.7,349.6,360.7,349.7,361.3z
		"/>
	<path d="M301,234.2c0.7,0.5,0.8,1.2,0.5,2c-0.2,0.6-0.8,0.8-1.3,0.5c-0.7-0.5-0.5-1.4-0.2-2.1C300.1,234.4,300.6,234.3,301,234.2z"
		/>
	<path d="M288,253.9c0.1-1.4,0.3-2,0.9-2c1.1,0,1,0.9,0.9,1.6c-0.1,0.6-0.4,1.2-1.1,0.9C288.2,254.2,288,253.6,288,253.9z"/>
	<path d="M302,217.5c-0.1,0.2-0.1,0.4-0.2,0.5c-0.3,0.8,0.1,1.9-1,2.4c-0.2,0.1-0.8-0.2-0.9-0.4c-0.7-1.7,0.4-2.3,1.8-2.7L302,217.5
		z"/>
	<path d="M356.8,390.7c0,0.7-0.3,1.2-1,1.1c-0.7-0.1-0.9-0.7-0.8-1.2c0.1-0.5,0.4-1.2,0.7-1.3C356.8,389.1,356.7,390,356.8,390.7z"
		/>
	<path d="M190.5,393.6c0.1-1.4,0.3-2,0.9-2c1.1,0,1,0.9,0.9,1.6c-0.1,0.6-0.4,1.2-1.1,0.9C190.7,393.9,190.5,393.4,190.5,393.6z"/>
	<path d="M276.2,428.8c-0.1,0.3-0.3,0.7-0.4,1c-0.5,1.2-1.4,1-2.3,0.7c-0.2-0.1-0.5-0.6-0.4-0.9c0.3-0.9,1.1-0.7,1.8-0.9
		c0.4-0.1,0.7-0.2,1.1-0.3C275.9,428.5,276.2,428.8,276.2,428.8z"/>
	<path d="M293.2,454.3c0.1,0.8-0.4,1.1-1,1.1c-0.5,0-1.2-0.1-1.5-0.5c-0.3-0.5,0-1,0.7-1.2C292.1,453.5,292.8,453.6,293.2,454.3z"/>
	<path d="M260.7,488.5c0.8-0.8,1.6-1.6,2.4-2.4l0.2,0.2c0.1,0.4,0.1,0.7,0.2,1.1c0.3,0.7,0.9,1.4,0,1.9c-0.3,0.2-1-0.2-1.5-0.3
		c-0.3-0.1-0.7-0.1-1.1-0.2L260.7,488.5z"/>
	<path d="M221.9,519c0.4-2.2,2-3.4,3.5-4.7l0.3,0.2c-0.4,2.1-2.2,3.3-3.5,4.7L221.9,519z"/>
	<path d="M183,521.1c-0.1,0.2-0.3,0.9-0.7,1c-1.1,0.2-1.1-0.7-1.1-1.4c0-0.6,0.3-1.1,1-1.1C182.8,519.6,183,520.2,183,521.1z"/>
	<path d="M329.7,420.1c-0.1,0.1-0.2,0.9-0.5,1c-1,0.3-1.2-0.6-1.2-1.4c0-0.6,0.2-1.1,0.9-1.2C329.5,418.6,329.8,419.1,329.7,420.1z"
		/>
	<path d="M180.7,371c-0.1,1.4-0.3,2-0.9,2c-1.1,0-1-0.9-0.9-1.6c0.1-0.6,0.4-1.2,1.1-0.9C180.5,370.7,180.7,371.2,180.7,371z"/>
	<path d="M215.1,529.7c-0.2,0.9-0.4,1.8-0.7,2.7c-0.1,0.2-0.7,0.3-0.9,0.2c-0.2-0.2-0.5-0.8-0.4-0.9c0.5-0.8,1.2-1.5,1.8-2.2
		L215.1,529.7z"/>
	<path d="M240.6,507.2c0.2-0.7,0.3-1.5,0.5-2.2c0.2-0.6,0.7-0.9,1.2-0.6c0.6,0.3,0.5,1,0.1,1.4c-0.5,0.6-1.1,1.1-1.6,1.6
		C240.9,507.4,240.6,507.2,240.6,507.2z"/>
	<path d="M343.9,353.1c-0.2-0.3-0.5-0.6-0.5-0.8c0.1-0.7,0.6-0.8,1.1-0.5c0.2,0.1,0.4,0.7,0.3,0.9
		C344.7,352.9,344.2,353,343.9,353.1z"/>
	<path d="M186.6,404.8c-0.2-0.3-0.5-0.6-0.5-0.8c0.1-0.7,0.6-0.8,1.1-0.5c0.2,0.1,0.4,0.7,0.3,0.9
		C187.4,404.6,186.9,404.6,186.6,404.8z"/>
	<path d="M172.3,363.1c-0.3,0.2-0.6,0.5-0.8,0.5c-0.7-0.1-0.8-0.6-0.5-1.1c0.1-0.2,0.7-0.4,0.9-0.3
		C172.1,362.3,172.1,362.8,172.3,363.1z"/>
	<path d="M359.5,361.6c0.3,0.1,0.7,0.3,1,0.4c0.8,0.4,1.2,1,0.3,1.6c-0.5,0.3-1-0.1-1.2-0.7c-0.1-0.3-0.3-0.7-0.4-1L359.5,361.6z"/>
	<path d="M340.7,364.5c0.2,0.2,0.6,0.4,0.6,0.7c0.1,0.7-0.5,0.9-1,0.8c-0.2-0.1-0.4-0.6-0.4-0.9C340,364.8,340.4,364.7,340.7,364.5z
		"/>
	<path d="M351.3,392.7c0.2,0.2,0.6,0.5,0.6,0.7c0.1,0.7-0.5,0.9-1.1,0.7c-0.2-0.1-0.4-0.6-0.3-0.9C350.5,393,351,392.9,351.3,392.7z
		"/>
	<path d="M291.7,241.9c0.2-0.2,0.5-0.6,0.7-0.6c0.7-0.1,0.9,0.5,0.7,1.1c-0.1,0.2-0.6,0.4-0.9,0.3
		C292,242.6,291.9,242.2,291.7,241.9z"/>
	<path d="M222.2,519.2c-0.4,0.7-0.3,1.4,0,2l-0.3,0.3c-1-0.2-1.4,0.7-2.1,1.2l-0.3-0.2c0.3-1.5,1.1-2.7,2.3-3.5L222.2,519.2z"/>
	<path d="M211.2,523.3c-0.2-0.3-0.5-0.6-0.5-0.8c0.1-0.7,0.6-0.8,1.1-0.5c0.2,0.1,0.4,0.7,0.3,0.9
		C212,523.2,211.6,523.2,211.2,523.3z"/>
	<path d="M222.2,521.3c0.3,0.1,0.7,0.3,1,0.4c0.8,0.4,1.2,1,0.3,1.6c-0.5,0.3-1-0.1-1.2-0.7c-0.1-0.3-0.3-0.7-0.4-1L222.2,521.3z"/>
	<path d="M314.6,433.2c0.1-0.3,0.3-0.7,0.4-1c0.4-0.8,1-1.2,1.6-0.3c0.3,0.5-0.1,1-0.7,1.2c-0.3,0.1-0.7,0.3-1,0.4
		C314.9,433.5,314.6,433.2,314.6,433.2z"/>
	<path d="M218.6,525c-0.1,0.3-0.3,0.7-0.4,1c-0.2,0.6-0.6,0.9-1.2,0.8c-0.2,0-0.4-0.2-0.4-0.3c-0.1-0.6,0.1-1,0.7-1.3
		c0.3-0.1,0.7-0.3,1-0.4L218.6,525z"/>
	<path d="M342.8,372.5c-0.3-0.1-0.7-0.3-1-0.4c-0.8-0.4-1.2-1-0.3-1.6c0.5-0.3,1,0.1,1.2,0.7c0.1,0.3,0.3,0.7,0.4,1L342.8,372.5z"/>
	<path d="M291.4,236.6c0.2,0.2,0.6,0.4,0.6,0.7c0.1,0.7-0.5,0.9-1,0.8c-0.2-0.1-0.4-0.6-0.4-0.9
		C290.6,236.9,291.1,236.7,291.4,236.6z"/>
	<path d="M161.4,536.6c0.2-0.2,0.5-0.6,0.7-0.6c0.7-0.1,0.9,0.5,0.7,1.1c-0.1,0.2-0.6,0.4-0.9,0.3
		C161.7,537.3,161.6,536.9,161.4,536.6z"/>
	<path d="M191.6,545.4c0.2,0.2,0.6,0.4,0.6,0.7c0.1,0.7-0.5,0.9-1,0.8c-0.2-0.1-0.4-0.6-0.4-0.9
		C190.8,545.7,191.3,545.5,191.6,545.4z"/>
	<path d="M146.1,552.3c0.4-0.4,0.7-0.8,1.1-1.1c0.3-0.1,0.5-0.3,0.7-0.5l0.2,0.2c-0.5,1.1-0.5,2.6-2.1,3
		C146.1,553.3,146.1,552.8,146.1,552.3z"/>
	<path d="M166.9,377.4c0.2,0.2,0.6,0.5,0.6,0.7c0.1,0.7-0.5,0.9-1.1,0.7c-0.2-0.1-0.4-0.6-0.3-0.9
		C166.2,377.7,166.7,377.6,166.9,377.4z"/>
	<path d="M183.4,554.5c-0.1,0.3-0.3,0.7-0.4,1c-0.4,0.8-1,1.2-1.6,0.3c-0.3-0.5,0.1-1,0.7-1.2c0.3-0.1,0.7-0.3,1-0.4L183.4,554.5z"
		/>
	<path d="M299.4,227.7c0.1-0.3,0.3-0.7,0.4-1c0.4-0.8,1-1.2,1.6-0.3c0.3,0.5-0.1,1-0.7,1.2c-0.3,0.1-0.7,0.3-1,0.4
		C299.7,228,299.4,227.7,299.4,227.7z"/>
	<path d="M332.8,392.2c0.2-0.2,0.5-0.6,0.7-0.6c0.7-0.1,0.9,0.5,0.7,1.1c-0.1,0.2-0.6,0.4-0.9,0.3
		C333.1,392.9,333,392.5,332.8,392.2z"/>
	<path d="M189.2,386.8c0.2,0.2,0.6,0.5,0.6,0.7c0.1,0.7-0.5,0.9-1.1,0.7c-0.2-0.1-0.4-0.6-0.3-0.9C188.5,387.1,189,387,189.2,386.8z
		"/>
	<path d="M157.2,577.4c-0.2-0.3-0.5-0.6-0.5-0.8c0.1-0.7,0.6-0.8,1.1-0.5c0.2,0.1,0.4,0.7,0.3,0.9
		C158,577.2,157.5,577.2,157.2,577.4z"/>
	<path d="M268.8,478.1c-0.3-0.1-0.7-0.3-1-0.4c-0.8-0.4-1.2-1-0.3-1.6c0.5-0.3,1,0.1,1.2,0.7c0.1,0.3,0.3,0.7,0.4,1L268.8,478.1z"/>
	<path d="M296.7,195.1c-0.2,0.2-0.5,0.6-0.7,0.6c-0.7,0.1-0.9-0.5-0.7-1.1c0.1-0.2,0.6-0.4,0.9-0.3
		C296.5,194.4,296.6,194.8,296.7,195.1z"/>
	<path d="M152.3,588.6c-0.3,0.2-0.6,0.5-0.8,0.5c-0.7-0.1-0.8-0.6-0.5-1.1c0.1-0.2,0.7-0.4,0.9-0.3
		C152.1,587.8,152.2,588.2,152.3,588.6z"/>
	<path d="M314.9,422.7c0.3,0.1,0.7,0.3,1,0.4c0.8,0.4,1.2,1,0.3,1.6c-0.5,0.3-1-0.1-1.2-0.7c-0.1-0.3-0.3-0.7-0.4-1L314.9,422.7z"/>
	<path d="M126.8,594.1c0.4-1.4,1.3-2.6,2.4-3.5l0.2,0.2c-0.3,1.5-1.1,2.7-2.4,3.5L126.8,594.1z"/>
	<path d="M305,434.8c-0.3,0.2-0.6,0.5-0.8,0.5c-0.7-0.1-0.8-0.6-0.5-1.1c0.1-0.2,0.7-0.4,0.9-0.3C304.8,434,304.8,434.4,305,434.8z"
		/>
	<path d="M286.7,262.4c0.2,0.2,0.6,0.5,0.6,0.7c0.1,0.7-0.5,0.9-1.1,0.7c-0.2-0.1-0.4-0.6-0.3-0.9
		C286,262.7,286.4,262.5,286.7,262.4z"/>
	<path d="M314.6,422.9c-1.3-0.3-2.1-1.1-2.3-2.4l0.3-0.3c1.3,0.3,2.1,1.1,2.3,2.4L314.6,422.9z"/>
	<path d="M260.3,435.8c-0.2,0.2-0.5,0.6-0.7,0.6c-0.7,0.1-0.9-0.5-0.7-1.1c0.1-0.2,0.6-0.4,0.9-0.3
		C260.1,435.1,260.2,435.5,260.3,435.8z"/>
	<path d="M142.2,598.2c0.2,0.2,0.6,0.4,0.6,0.7c0.1,0.7-0.5,0.9-1,0.8c-0.2-0.1-0.4-0.6-0.4-0.9C141.5,598.5,142,598.4,142.2,598.2z
		"/>
	<path d="M254.5,441.6c-0.2,0.2-0.4,0.6-0.7,0.6c-0.7,0.1-0.9-0.5-0.8-1c0.1-0.2,0.6-0.4,0.9-0.4
		C254.1,440.9,254.3,441.4,254.5,441.6z"/>
	<path d="M302.8,442.3c-0.2-0.3-0.5-0.6-0.5-0.8c0.1-0.7,0.6-0.8,1.1-0.5c0.2,0.1,0.4,0.7,0.3,0.9
		C303.6,442.1,303.1,442.2,302.8,442.3z"/>
	<path d="M308.5,441.8c-0.3,0.2-0.6,0.5-0.8,0.5c-0.7-0.1-0.8-0.7-0.5-1.2c0.1-0.2,0.7-0.3,0.9-0.2
		C308.3,441,308.3,441.5,308.5,441.8z"/>
	<path d="M297,447c-0.2-0.3-0.5-0.6-0.5-0.8c0.1-0.7,0.6-0.8,1.1-0.5c0.2,0.1,0.4,0.7,0.3,0.9C297.8,446.8,297.3,446.9,297,447z"/>
	<path d="M245.1,448.7c-0.2,0.2-0.4,0.6-0.7,0.6c-0.7,0.1-0.9-0.5-0.8-1c0.1-0.2,0.6-0.4,0.9-0.4C244.8,448,244.9,448.4,245.1,448.7
		z"/>
	<path d="M301.4,448.7c-0.2,0.2-0.4,0.6-0.7,0.6c-0.7,0.1-0.9-0.5-0.8-1c0.1-0.2,0.6-0.4,0.9-0.4C301.1,448,301.2,448.4,301.4,448.7
		z"/>
	<path d="M299.1,178.6c-0.2,0.2-0.4,0.6-0.7,0.6c-0.7,0.1-0.9-0.5-0.8-1c0.1-0.2,0.6-0.4,0.9-0.4
		C298.8,177.9,298.9,178.4,299.1,178.6z"/>
	<path d="M299.1,454.7c-0.3,0.2-0.6,0.5-0.8,0.5c-0.7-0.1-0.8-0.6-0.5-1.1c0.1-0.2,0.7-0.4,0.9-0.3
		C298.9,453.9,299,454.4,299.1,454.7z"/>
	<path d="M277,465.8c-0.2-0.3-0.5-0.6-0.5-0.8c0.1-0.7,0.6-0.8,1.1-0.5c0.2,0.1,0.4,0.7,0.3,0.9C277.8,465.6,277.3,465.7,277,465.8z
		"/>
	<path d="M237.7,255.6c0-0.5,0-1,0-1.5c0.5-0.3,1-0.7,1.5-1C239.5,254.4,238.8,255.1,237.7,255.6z"/>
	<path d="M271.4,472.6c0.2,0.2,0.6,0.4,0.6,0.7c0.1,0.7-0.5,0.9-1,0.8c-0.2-0.1-0.4-0.6-0.4-0.9
		C270.7,472.9,271.1,472.7,271.4,472.6z"/>
	<path d="M264.4,478.4c0.2,0.2,0.6,0.4,0.6,0.7c0.1,0.7-0.5,0.9-1,0.8c-0.2-0.1-0.4-0.6-0.4-0.9
		C263.6,478.7,264.1,478.6,264.4,478.4z"/>
	<path d="M262.7,482.8c-0.2,0.2-0.5,0.6-0.7,0.6c-0.7,0.1-0.9-0.5-0.7-1.1c0.1-0.2,0.6-0.4,0.9-0.3
		C262.4,482,262.5,482.5,262.7,482.8z"/>
	<path d="M240,252.1c-0.3-1.3,0.4-2.1,1.6-2.5C241.9,250.9,241.2,251.6,240,252.1z"/>
	<path d="M236.2,494.8c0.2,0.2,0.6,0.5,0.6,0.7c0.1,0.7-0.5,0.9-1.1,0.7c-0.2-0.1-0.4-0.6-0.3-0.9
		C235.5,495.1,235.9,495,236.2,494.8z"/>
	<path d="M258.3,496.9c-0.3-0.1-0.7-0.3-1-0.4c-0.8-0.4-1.2-1-0.3-1.6c0.5-0.3,1,0.1,1.2,0.7c0.1,0.3,0.3,0.7,0.4,1L258.3,496.9z"/>
	<path d="M242.4,247c0.4-0.4,0.7-0.7,1.1-1.1l0.4,0c0.3,1.3-0.3,2.1-1.6,2.6C242.4,248,242.4,247.5,242.4,247z"/>
	<path d="M192.2,399.6c-0.3,0.2-0.6,0.5-0.8,0.5c-0.7-0.1-0.8-0.7-0.5-1.2c0.1-0.2,0.7-0.3,0.9-0.2
		C192.1,398.8,192.1,399.2,192.2,399.6z"/>
	<path d="M246.6,247.8c0.2-1.5,1.2-2.6,2.3-3.6l0.3,0.2c-0.2,1.5-1.2,2.6-2.3,3.6L246.6,247.8z"/>
	<path d="M245.6,250.3c-0.1,0.4-0.2,0.8-0.4,1.1c-0.4,0.7,0.5,0.3-0.3,0.5c0,0-0.3-0.6-0.3-0.8c0.1-0.3,0.4-0.6,0.6-1L245.6,250.3z"
		/>
	<path d="M206.9,306.6c-0.4,0.8-0.8,1.6-1.2,2.4c0,0-0.2-0.2-0.2-0.2c0.4-0.8,0.8-1.6,1.2-2.4L206.9,306.6z"/>
	<path d="M180.5,568l-0.4,0c0-0.5-0.5-1.2,0.4-1.4C180.5,567,180.5,567.5,180.5,568z"/>
	<path d="M276.1,327.8c-0.5,0.2-0.9,0.5-1.4,0.7c-0.3-1.2,0.9-0.5,1.2-1L276.1,327.8z"/>
	<path d="M246.8,248c-0.4,0.7-0.8,1.5-1.2,2.2c0,0-0.3-0.2-0.3-0.2c0.4-0.7,0.8-1.5,1.2-2.2C246.6,247.8,246.8,248,246.8,248z"/>
	<path d="M248.9,244.2c0.4-0.8,0.8-1.5,1.2-2.3c0,0,0.2,0.2,0.2,0.2c-0.3,0.8-0.3,1.8-1.2,2.3C249.1,244.4,248.9,244.2,248.9,244.2z
		"/>
	<path d="M219.8,522.8c-0.4,0.7-0.8,1.5-1.2,2.2l-0.3-0.2c0.4-0.7,0.8-1.5,1.2-2.2L219.8,522.8z"/>
	<path d="M366.1,369.2c0.1,0.2,0.3,0.5,0.4,0.7l-0.2,0.2c-0.7-0.4-1.4-0.3-2.1,0l-0.2-0.2C364.5,369.2,365.2,368.9,366.1,369.2z"/>
	<path d="M172,388.3c0.1,0,0.3,0,0.3,0.1c0.1,0.1,0.1,0.3,0.1,0.5c-0.2,0.5-0.4,0.5-0.5-0.1C171.8,388.7,171.9,388.5,172,388.3z"/>
	<path d="M230.4,507.4c-0.4,0.8-0.8,1.6-1.2,2.4c0,0-0.2-0.2-0.2-0.2c0.4-0.8,0.8-1.6,1.2-2.4C230.1,507.2,230.4,507.4,230.4,507.4z
		"/>
	<path d="M311.4,420.6c-0.4,0.4-0.8,0.8-1.3,1.2c0,0-0.2-0.2-0.2-0.2c0.4-0.4,0.8-0.8,1.2-1.2C311.2,420.3,311.4,420.6,311.4,420.6z
		"/>
	<path d="M308.8,422.7c0.4-0.4,0.8-0.8,1.2-1.2l0.2,0.2c-0.4,0.4-0.8,0.8-1.2,1.2L308.8,422.7z"/>
	<path d="M309,422.9c-0.4,0.4-0.8,0.7-1.1,1.1l-0.2-0.2c0.4-0.4,0.8-0.7,1.1-1.1L309,422.9z"/>
	<path d="M302.9,428.6c0.4-0.4,0.8-0.8,1.2-1.2l0.2,0.2c-0.4,0.4-0.8,0.8-1.2,1.2L302.9,428.6z"/>
	<path d="M303.1,428.8c-0.4,0.4-0.8,0.8-1.2,1.2l-0.2-0.2c0.4-0.4,0.8-0.8,1.2-1.2L303.1,428.8z"/>
	<path d="M300.6,431c0.4-0.4,0.8-0.8,1.2-1.2l0.2,0.2c-0.4,0.4-0.8,0.8-1.2,1.2C300.8,431.2,300.6,431,300.6,431z"/>
	<path d="M300.8,431.2c-0.2,0.2-0.5,0.3-0.7,0.5c0.2-0.2,0.3-0.4,0.5-0.7L300.8,431.2z"/>
	<path d="M293.5,183.2c0.2-0.2,0.5-0.3,0.7-0.5c-0.2,0.2-0.3,0.5-0.5,0.7C293.7,183.4,293.5,183.2,293.5,183.2z"/>
	<polygon points="214.2,444.7 214.2,444.4 214.6,444.5 	"/>
	<path d="M292.4,184.3c0.4-0.4,0.8-0.7,1.1-1.1l0.2,0.2c-0.4,0.4-0.8,0.7-1.1,1.1L292.4,184.3z"/>
	<path d="M218.4,448.5c0.2-0.2,0.5-0.3,0.7-0.5c-0.2,0.2-0.3,0.5-0.5,0.7C218.6,448.8,218.4,448.5,218.4,448.5z"/>
	<path d="M217.2,449.7c0.4-0.4,0.8-0.8,1.2-1.2l0.2,0.2c-0.4,0.4-0.8,0.8-1.2,1.2L217.2,449.7z"/>
	<path d="M217.4,449.9c-0.4,0.4-0.8,0.8-1.2,1.2l-0.2-0.2c0.4-0.4,0.8-0.8,1.2-1.2L217.4,449.9z"/>
	<path d="M214.9,452c0.4-0.4,0.8-0.7,1.1-1.1l0.2,0.2c-0.4,0.4-0.8,0.7-1.1,1.1C215.1,452.2,214.9,452,214.9,452z"/>
	<path d="M250.3,236c0.2,0.2,0.3,0.5,0.5,0.7c-0.2-0.2-0.4-0.3-0.7-0.5L250.3,236z"/>
	<path d="M312.3,420.6l-0.4-0.2l-0.4,0.2l-0.2-0.3c0.4-0.4,0.8-0.8,1.1-1.2l0.2,0.2c-0.2,0.3-0.2,0.6,0,1L312.3,420.6z"/>
	<path d="M252.6,238.6c-0.2,0.2-0.5,0.3-0.7,0.5c0.2-0.2,0.3-0.4,0.5-0.7L252.6,238.6z"/>
	<polygon points="248.2,240.4 248.3,240.1 248.6,240.2 	"/>
	<polygon points="247.1,241.2 247.4,241.2 247.3,241.6 	"/>
	<path d="M250.1,241.8c0.2-0.2,0.5-0.3,0.7-0.5c-0.2,0.2-0.3,0.4-0.5,0.7L250.1,241.8z"/>
	<polygon points="245.9,243.9 245.9,243.6 246.3,243.8 	"/>
	<path d="M265.3,483.8c0.4-0.4,0.8-0.8,1.2-1.2c0,0,0.2,0.2,0.2,0.2c-0.4,0.4-0.8,0.8-1.2,1.2C265.6,484,265.3,483.8,265.3,483.8z"
		/>
	<path d="M265.6,484c-0.4,0.4-0.8,0.8-1.2,1.2l-0.2-0.2c0.4-0.4,0.8-0.8,1.2-1.2L265.6,484z"/>
	<path d="M263,486.1c0.4-0.4,0.8-0.7,1.1-1.1c0,0,0.2,0.2,0.2,0.2c-0.4,0.4-0.8,0.7-1.1,1.1C263.2,486.3,263,486.1,263,486.1z"/>
	<polygon points="244.7,245.1 244.8,244.7 245.1,244.7 245,245 	"/>
	<path d="M260.9,488.7c-0.2,0.2-0.5,0.3-0.7,0.5c0.2-0.2,0.3-0.4,0.5-0.7L260.9,488.7z"/>
	<path d="M254.8,493.2c0.2-0.2,0.5-0.3,0.7-0.5c-0.2,0.2-0.3,0.5-0.5,0.7C255,493.4,254.8,493.2,254.8,493.2z"/>
	<path d="M255,493.4c-0.4,0.4-0.8,0.8-1.2,1.2c0,0-0.2-0.2-0.2-0.2c0.4-0.4,0.8-0.8,1.2-1.2C254.8,493.2,255,493.4,255,493.4z"/>
	<path d="M253.8,494.6c-0.4,0.4-0.8,0.8-1.2,1.2l-0.2-0.2c0.4-0.4,0.8-0.8,1.2-1.2C253.6,494.4,253.8,494.6,253.8,494.6z"/>
	<path d="M252.6,495.7c-0.2,0.2-0.5,0.3-0.7,0.5c0.2-0.2,0.3-0.4,0.5-0.7L252.6,495.7z"/>
	<path d="M231.3,506.1c0.2-0.2,0.5-0.3,0.7-0.5c-0.2,0.2-0.3,0.5-0.5,0.7L231.3,506.1z"/>
	<path d="M230.1,507.2c0.4-0.4,0.8-0.7,1.1-1.1c0,0,0.2,0.2,0.2,0.2c-0.4,0.4-0.8,0.7-1.1,1.1C230.4,507.4,230.1,507.2,230.1,507.2z
		"/>
	<path d="M229.2,509.8c-0.4,0.4-0.8,0.7-1.1,1.1l-0.2-0.2c0.4-0.4,0.8-0.7,1.1-1.1C229,509.6,229.2,509.8,229.2,509.8z"/>
	<path d="M238.6,509.8c-0.2,0.2-0.5,0.3-0.7,0.5c0.2-0.2,0.3-0.4,0.5-0.7L238.6,509.8z"/>
	<path d="M234.8,514.2c0.2-0.2,0.5-0.3,0.7-0.5c-0.2,0.2-0.3,0.4-0.5,0.7L234.8,514.2z"/>
	<path d="M206.7,306.4c0.2-0.2,0.5-0.3,0.7-0.5c-0.2,0.2-0.3,0.4-0.5,0.7L206.7,306.4z"/>
	<path d="M169.1,517.8c0.2-0.2,0.5-0.3,0.7-0.5c-0.2,0.2-0.3,0.5-0.5,0.7L169.1,517.8z"/>
	<path d="M168.4,518.6l0-0.3c0.2-0.1,0.4-0.3,0.6-0.5l0.2,0.2C169,518.4,168.8,518.6,168.4,518.6z"/>
	<polygon points="167.2,519.8 167.3,519.5 167.6,519.5 167.5,519.8 	"/>
	<path d="M204.3,310c0.4-0.4,0.8-0.8,1.2-1.2l0.2,0.2c-0.4,0.4-0.8,0.8-1.2,1.2L204.3,310z"/>
	<polygon points="166,521 166.1,520.6 166.4,520.7 166.3,521 	"/>
	<path d="M204.5,310.2c-0.2,0.2-0.5,0.3-0.7,0.5c0.2-0.2,0.3-0.4,0.5-0.7L204.5,310.2z"/>
	<path d="M249.1,324.3c-0.2,0.2-0.5,0.3-0.7,0.5c0.2-0.2,0.3-0.4,0.5-0.7L249.1,324.3z"/>
	<path d="M227.8,523.6c0.2-0.2,0.5-0.3,0.7-0.5c-0.2,0.2-0.3,0.4-0.5,0.7C228,523.8,227.8,523.6,227.8,523.6z"/>
	<polygon points="161.4,526.8 161.4,526.5 161.7,526.5 161.6,526.8 	"/>
	<path d="M214.9,529.5c0.2-0.2,0.5-0.3,0.7-0.5c-0.2,0.2-0.3,0.4-0.5,0.7L214.9,529.5z"/>
	<path d="M362.8,371c0.4-0.4,0.8-0.7,1.1-1.1l0.2,0.2c-0.4,0.4-0.8,0.8-1.1,1.2L362.8,371z"/>
	<path d="M344,372.2c0.4-0.4,0.8-0.8,1.2-1.1l0.2,0.2c-0.4,0.4-0.8,0.8-1.2,1.2L344,372.2z"/>
	<path d="M344.2,372.4c-0.4,0.4-0.8,0.8-1.2,1.2l-0.2-0.2c0.2-0.3,0.2-0.6,0-0.9l0.3-0.3c0.3,0.2,0.6,0.2,0.9,0L344.2,372.4z"/>
	<path d="M343.1,373.6c-0.4,0.4-0.8,0.8-1.2,1.2l-0.2-0.2c0.4-0.4,0.8-0.8,1.2-1.2L343.1,373.6z"/>
	<path d="M207.8,538.9c0.2-0.2,0.5-0.3,0.7-0.5c-0.2,0.2-0.3,0.4-0.5,0.7L207.8,538.9z"/>
	<path d="M341.9,374.8c-0.4,0.4-0.8,0.7-1.1,1.1l-0.2-0.2c0.4-0.4,0.8-0.7,1.1-1.1L341.9,374.8z"/>
	<path d="M148,550.6c0.2-0.2,0.5-0.3,0.7-0.5c-0.2,0.2-0.3,0.4-0.5,0.7C148.2,550.8,148,550.6,148,550.6z"/>
	<polygon points="154.6,380.1 154.4,380.1 154.5,379.8 	"/>
	<path d="M334.6,380.4c0.4-0.4,0.8-0.8,1.2-1.2l0.2,0.2c-0.4,0.4-0.8,0.8-1.2,1.2L334.6,380.4z"/>
	<polygon points="153.5,381 153.4,381.3 153.2,381.2 	"/>
	<polygon points="144.9,555 145,554.7 145.3,554.7 145.2,555 	"/>
	<path d="M333.5,381.6c0.4-0.4,0.8-0.8,1.2-1.2l0.2,0.2c-0.4,0.4-0.8,0.8-1.2,1.2L333.5,381.6z"/>
	<path d="M333.7,381.8c-0.2,0.2-0.5,0.3-0.7,0.5c0.2-0.2,0.3-0.4,0.5-0.7L333.7,381.8z"/>
	<path d="M178.5,558.9c0.2-0.2,0.5-0.3,0.7-0.5c-0.2,0.2-0.3,0.5-0.5,0.7C178.7,559.1,178.5,558.9,178.5,558.9z"/>
	<path d="M178.7,559.1c-0.4,0.4-0.8,0.8-1.2,1.2l-0.2-0.2c0.4-0.4,0.8-0.8,1.2-1.2L178.7,559.1z"/>
	<path d="M177.5,560.3c-0.4,0.4-0.8,0.8-1.2,1.2c0,0-0.2-0.2-0.2-0.2c0.4-0.4,0.8-0.8,1.2-1.2C177.3,560.1,177.5,560.3,177.5,560.3z
		"/>
	<path d="M176.3,561.5c-0.4,0.4-0.8,0.8-1.2,1.2c0,0-0.2-0.2-0.2-0.2c0.4-0.4,0.8-0.8,1.2-1.2L176.3,561.5z"/>
	<path d="M175.1,562.7c-0.4,0.4-0.8,0.7-1.1,1.1l-0.2-0.2c0.4-0.4,0.8-0.7,1.1-1.1C174.9,562.5,175.1,562.7,175.1,562.7z"/>
	<polygon points="182.8,564.1 182.8,564.4 182.5,564.4 	"/>
	<polygon points="181.7,565.3 181.6,565.6 181.4,565.6 	"/>
	<polygon points="179.4,569.2 179,569.1 179.1,568.8 179.4,568.9 	"/>
	<polygon points="178.2,570.3 177.8,570.3 177.9,570 178.2,570 	"/>
	<path d="M158.7,580.3c-0.2,0.2-0.5,0.3-0.7,0.5c0.2-0.2,0.3-0.4,0.5-0.7L158.7,580.3z"/>
	<path d="M132.7,585.9c0.2-0.2,0.5-0.3,0.7-0.5c-0.2,0.2-0.3,0.5-0.5,0.7L132.7,585.9z"/>
	<path d="M132.9,586.1c-0.2,0.2-0.5,0.3-0.7,0.5c0.2-0.2,0.3-0.4,0.5-0.7C132.7,585.9,132.9,586.1,132.9,586.1z"/>
	<path d="M233.7,389.8c0.2-0.2,0.5-0.3,0.7-0.5c-0.2,0.2-0.3,0.4-0.5,0.7C233.9,390,233.7,389.8,233.7,389.8z"/>
	<path d="M130.3,589.4c0.2-0.2,0.5-0.3,0.7-0.5c-0.2,0.2-0.3,0.5-0.5,0.7L130.3,589.4z"/>
	<path d="M129.2,590.6c0.4-0.4,0.8-0.7,1.1-1.1c0,0,0.2,0.2,0.2,0.2c-0.4,0.4-0.8,0.7-1.1,1.1C129.4,590.8,129.2,590.6,129.2,590.6z
		"/>
	<path d="M132.7,597.7c0.4-0.6,0.9-0.8,1.4-0.1l-0.2,0.3l-0.5-0.2l-0.5,0.2L132.7,597.7z"/>
	<path d="M132.9,597.9c-0.2,0.2-0.5,0.3-0.7,0.5c0.2-0.2,0.3-0.4,0.5-0.7C132.7,597.7,132.9,597.9,132.9,597.9z"/>
	<path d="M312.3,419.1c0.4-0.4,0.8-0.8,1.2-1.2l0.2,0.2c-0.4,0.4-0.8,0.8-1.2,1.2L312.3,419.1z"/>
	<path d="M122.1,633.1c-0.2-0.2-0.3-0.5-0.5-0.7c0.2,0.2,0.4,0.3,0.7,0.5C122.3,632.9,122.1,633.1,122.1,633.1z"/>
	<path d="M116.3,641.1c0.2-0.2,0.5-0.3,0.7-0.5c-0.2,0.2-0.3,0.4-0.5,0.7C116.5,641.2,116.3,641.1,116.3,641.1z"/>
	<path d="M313.5,418c0.4-0.4,0.8-0.7,1.1-1.1l0.2,0.2c-0.4,0.4-0.8,0.7-1.1,1.1L313.5,418z"/>
	<path d="M348.9,107.1c-0.2,0.2-0.5,0.3-0.7,0.5c0.2-0.2,0.3-0.4,0.5-0.7L348.9,107.1z"/>
</g>
</svg>
